<svg width="16" height="16" viewBox="0 0 16 16" fill="none" xmlns="http://www.w3.org/2000/svg"><path d="M1.892 10.852l5.96-3.199a.333.333 0 0 1 .3-.007l5.9 2.815c.25.12.253.474.005.599l-6.382 3.198a.333.333 0 0 1-.302-.002l-5.475-2.814a.333.333 0 0 1-.006-.59z" fill="#031B4E" stroke="#fff"/><path d="M1.892 7.899l5.96-3.2a.333.333 0 0 1 .3-.006l5.9 2.815c.25.12.253.474.005.598l-6.382 3.198a.333.333 0 0 1-.302-.001L1.898 8.489a.333.333 0 0 1-.006-.59z" fill="#031B4E" stroke="#fff"/><path d="M1.892 4.945l5.96-3.198a.333.333 0 0 1 .3-.008l5.9 2.815c.25.12.253.475.005.6L7.675 8.35a.333.333 0 0 1-.302-.001L1.898 5.536a.333.333 0 0 1-.006-.59z" fill="#031B4E" stroke="#fff"/></svg>