<svg width="24" height="24" viewBox="0 0 24 24" fill="none" xmlns="http://www.w3.org/2000/svg"><g clip-path="url(#a)"><path d="M11.265 3.414a1.5 1.5 0 0 1 1.47 0l6.5 3.656A1.5 1.5 0 0 1 20 8.377v7.246a1.5 1.5 0 0 1-.765 1.307l-6.5 3.656a1.5 1.5 0 0 1-1.47 0l-6.5-3.656A1.5 1.5 0 0 1 4 15.623V8.377a1.5 1.5 0 0 1 .765-1.307l6.5-3.656z" fill="#CA0C0C"/><path fill-rule="evenodd" clip-rule="evenodd" d="M11 7.4c0-.22.18-.4.4-.4h1.2c.22 0 .4.18.4.4v5.2a.4.4 0 0 1-.4.4h-1.2a.4.4 0 0 1-.4-.4V7.4zm0 8.6a1 1 0 1 1 2 0 1 1 0 0 1-2 0z" fill="#fff"/></g><defs><clipPath id="a"><path fill="#fff" d="M0 0h24v24H0z"/></clipPath></defs></svg>