<svg id="Layer_1" data-name="Layer 1" xmlns="http://www.w3.org/2000/svg" xmlns:xlink="http://www.w3.org/1999/xlink" viewBox="0 0 25 25"><defs><style>.cls-1{fill:url(#linear-gradient)}.cls-2{fill:url(#linear-gradient-2)}.cls-3{fill:none;stroke:#3a60d6;stroke-miterlimit:10}</style><linearGradient id="linear-gradient" x1="3.74" y1="18.36" x2="21.26" y2="18.36" gradientUnits="userSpaceOnUse"><stop offset="0" stop-color="#4793ff" stop-opacity=".5"/><stop offset=".45" stop-color="#4793ff" stop-opacity=".25"/><stop offset=".82" stop-color="#4793ff" stop-opacity=".07"/><stop offset="1" stop-color="#4793ff" stop-opacity="0"/></linearGradient><linearGradient id="linear-gradient-2" x1="12.5" y1="1.17" x2="12.5" y2="10.88" xlink:href="#linear-gradient"/></defs><title>Firewall</title><path class="cls-1" d="M3.74 14.27h17.52v8.18H3.74z"/><path class="cls-2" d="M12.5.94s-4 2.94-4 5.94a4 4 0 0 0 8 0c.01-2.88-4-5.94-4-5.94z"/><path class="cls-3" d="M3.74 18.37h17.52m-8.92-4.1v4.35m-4.15-.53v4.35m8.53-4.35v4.35M12.5 6.09S10.57 7.51 10.57 9a1.93 1.93 0 0 0 3.86 0c0-1.44-1.93-2.91-1.93-2.91z"/><rect class="cls-3" x="3.74" y="14.27" width="17.52" height="8.18" rx="1.5" ry="1.5"/></svg>