<svg width="22" height="21" viewBox="0 0 22 21" fill="none" xmlns="http://www.w3.org/2000/svg"><path fill-rule="evenodd" clip-rule="evenodd" d="M21.707 17.56a.5.5 0 0 0 0-.706l-2.5-2.5a.5.5 0 0 0-.707.707l1.646 1.646H1.914l1.646-1.646a.5.5 0 0 0-.707-.707l-2.5 2.5a.5.5 0 0 0 0 .707l2.5 2.5a.5.5 0 0 0 .707-.707l-1.646-1.647h18.232L18.5 19.354a.5.5 0 1 0 .707.707l2.5-2.5z" fill="#0069FF"/><mask id="a" maskUnits="userSpaceOnUse" x="15" y="0" width="7" height="12"><path fill="#C4C4C4" d="M15 0h7v12h-7z"/></mask><g mask="url(#a)"><path d="M17 10.5a4.52 4.52 0 0 1-.879-.086l-.097.49a4.97 4.97 0 0 1-1.802-.746l.278-.416A4.525 4.525 0 0 1 13.258 8.5l-.416.278a4.97 4.97 0 0 1-.747-1.802l.49-.097a4.52 4.52 0 0 1 0-1.758l-.49-.097a4.97 4.97 0 0 1 .747-1.802l.416.278A4.525 4.525 0 0 1 14.5 2.258l-.278-.416a4.972 4.972 0 0 1 1.802-.747l.097.49a4.525 4.525 0 0 1 1.758 0l.097-.49c.656.13 1.266.388 1.802.747l-.278.416c.49.328.914.751 1.242 1.242l.416-.278a4.97 4.97 0 0 1 .747 1.802l-.49.097a4.52 4.52 0 0 1 0 1.758l.49.097a4.97 4.97 0 0 1-.747 1.802l-.416-.278c-.328.49-.751.914-1.242 1.242l.278.416a4.97 4.97 0 0 1-1.802.747l-.097-.49A4.52 4.52 0 0 1 17 10.5z" stroke="#0069FF" stroke-dasharray="2 2"/></g><path d="M15.5 6a4.5 4.5 0 1 1-9 0 4.5 4.5 0 0 1 9 0z" fill="#fff" stroke="#0069FF"/><path d="M9.5 6a4.5 4.5 0 1 1-9 0 4.5 4.5 0 0 1 9 0z" fill="#ABD0FF" stroke="#0069FF"/></svg>