<svg id="Layer_1" data-name="Layer 1" xmlns="http://www.w3.org/2000/svg" viewBox="0 0 1059.11 310.28"><defs><style>.cls-1{fill:#fff;}</style></defs><title>NGINX_Amplify_W_170828</title><path class="cls-1" d="M346.85,311.6,228.64,243.35a18.72,18.72,0,0,0-18.66,0L91.77,311.6a18.72,18.72,0,0,0-9.32,16.16V464.25a18.71,18.71,0,0,0,9.33,16.16L210,548.65a18.71,18.71,0,0,0,18.66,0l118.2-68.25a18.7,18.7,0,0,0,9.33-16.16V327.75A18.71,18.71,0,0,0,346.85,311.6ZM287.69,448.5c0,8.1-7.16,14.8-17.3,14.8-7.26,0-15.64-2.93-20.77-9.29l-68.25-81.68V448.5a14.85,14.85,0,0,1-14.81,14.81h-.84a14.85,14.85,0,0,1-14.81-14.81v-105c0-8.1,7.16-14.8,17.3-14.8,7.26,0,15.64,2.93,20.77,9.29l68.25,81.68V343.5a14.85,14.85,0,0,1,14.81-14.81h.84a14.85,14.85,0,0,1,14.81,14.81Z" transform="translate(-82.45 -240.86)"/><path class="cls-1" d="M489.19,321.68h0a14.9,14.9,0,0,1,13.89,9.51L552.67,459a9.37,9.37,0,0,1-8.73,12.76h-.86a9.37,9.37,0,0,1-8.77-6.06l-13.48-35.77H456.51L443,465.7a9.37,9.37,0,0,1-8.77,6.06h0A9.37,9.37,0,0,1,425.53,459L475.3,331.17A14.9,14.9,0,0,1,489.19,321.68Zm25.76,91.44-26.48-69.58-26.07,69.58Z" transform="translate(-82.45 -240.86)"/><path class="cls-1" d="M583,363.09h0a9,9,0,0,1,9,9v7.57q7.35-10.09,16.19-15a36.62,36.62,0,0,1,18.08-4.94q12.19,0,19.65,5.25t11,15.14a51.41,51.41,0,0,1,16.82-15.24A41.58,41.58,0,0,1,694,359.73q16,0,24.7,8.72t8.72,28.06v66.11a9.14,9.14,0,0,1-9.14,9.14h0a9.14,9.14,0,0,1-9.14-9.14V400.72a50.65,50.65,0,0,0-1.26-12.3,19.21,19.21,0,0,0-3.68-7.78,13,13,0,0,0-6-4,26.73,26.73,0,0,0-8.2-1.16A33.06,33.06,0,0,0,680,377.17a31,31,0,0,0-10.3,5.89,29.87,29.87,0,0,0-6.94,8.62A23.87,23.87,0,0,0,660,403.24v59.38a9.14,9.14,0,0,1-9.14,9.14h0a9.14,9.14,0,0,1-9.14-9.14V400.93q0-14.3-4.94-19.86t-14.19-5.57q-10.72,0-20.18,8.83a42.54,42.54,0,0,0-6.83,8.62q-3.26,5.25-3.26,14.08v55.6a9.14,9.14,0,0,1-9.14,9.14h0a9.14,9.14,0,0,1-9.14-9.14V372.13A9,9,0,0,1,583,363.09Z" transform="translate(-82.45 -240.86)"/><path class="cls-1" d="M764,363.09h0a9,9,0,0,1,9,9v6.52a47.17,47.17,0,0,1,15.66-14.08q8.93-4.83,20.91-4.83a46.24,46.24,0,0,1,20.29,4.2,39.69,39.69,0,0,1,14.5,11.77,51.72,51.72,0,0,1,8.62,18,87.39,87.39,0,0,1,2.84,23A81.68,81.68,0,0,1,852.52,441a52.86,52.86,0,0,1-9.67,18.39A42.86,42.86,0,0,1,827.61,471a49,49,0,0,1-38.26.42q-8.94-3.67-16.08-13.14V503.4a9.14,9.14,0,0,1-9.14,9.14h0A9.14,9.14,0,0,1,755,503.4V372.13A9,9,0,0,1,764,363.09Zm9,57.39a58.65,58.65,0,0,0,2.42,18,34.8,34.8,0,0,0,6.62,12.3,24.63,24.63,0,0,0,10.09,7A36.26,36.26,0,0,0,805,460a33.31,33.31,0,0,0,12.51-2.31,24.53,24.53,0,0,0,10-7.46,37.73,37.73,0,0,0,6.62-13.35,71.49,71.49,0,0,0,2.42-20q0-12-2.63-20.07a36.87,36.87,0,0,0-6.83-12.93,24.5,24.5,0,0,0-9.56-6.94,30,30,0,0,0-11-2.1,35.65,35.65,0,0,0-13.24,2.42,29.62,29.62,0,0,0-10.62,7.15,32.45,32.45,0,0,0-7,12,50.75,50.75,0,0,0-2.52,16.71Z" transform="translate(-82.45 -240.86)"/><path class="cls-1" d="M890,321.68h0a9.14,9.14,0,0,1,9.14,9.14v131.8a9.14,9.14,0,0,1-9.14,9.14h0a9.14,9.14,0,0,1-9.14-9.14V330.82A9.14,9.14,0,0,1,890,321.68Z" transform="translate(-82.45 -240.86)"/><path class="cls-1" d="M937.34,321.68h0a9.77,9.77,0,0,1,9.77,9.77v1.68a9.77,9.77,0,0,1-9.77,9.77h0a9.77,9.77,0,0,1-9.77-9.77v-1.68A9.77,9.77,0,0,1,937.34,321.68Zm0,41.41h0a9.14,9.14,0,0,1,9.14,9.14v90.39a9.14,9.14,0,0,1-9.14,9.14h0a9.14,9.14,0,0,1-9.14-9.14V372.23A9.14,9.14,0,0,1,937.34,363.09Z" transform="translate(-82.45 -240.86)"/><path class="cls-1" d="M981.58,377.59h-9.77a7.25,7.25,0,0,1-7.25-7.25h0a7.25,7.25,0,0,1,7.25-7.25h9.77v-9.46a39.23,39.23,0,0,1,2.63-15.13,28.65,28.65,0,0,1,7.15-10.41,29.25,29.25,0,0,1,10.51-6.1,40,40,0,0,1,12.72-2,79.11,79.11,0,0,1,9.25.52l1.59.22a7.5,7.5,0,0,1,6.19,8.91h0a7.47,7.47,0,0,1-8.35,5.88c-1.35-.19-2.46-.32-2.86-.33q-1.34-.06-2.66-.06a20.62,20.62,0,0,0-12.61,3.89q-5.25,3.89-5.25,14.19v9.88h20.29a7.25,7.25,0,0,1,7.25,7.25h0a7.25,7.25,0,0,1-7.25,7.25H999.87v85a9.14,9.14,0,0,1-9.14,9.14h0a9.14,9.14,0,0,1-9.14-9.14Z" transform="translate(-82.45 -240.86)"/><path class="cls-1" d="M1049.34,502.37a7.6,7.6,0,0,1,8.48-5.77,33.25,33.25,0,0,0,5.11.4q6.72,0,10.41-3.47t7.25-12.93L1085,469l-40.4-93a9.28,9.28,0,0,1,8.51-13h.81a9.28,9.28,0,0,1,8.61,5.82l31.93,79.52,29.09-79.26a9.28,9.28,0,0,1,8.71-6.08h0a9.28,9.28,0,0,1,8.62,12.72l-42.42,106.25a137.94,137.94,0,0,1-5.89,12.93,47.79,47.79,0,0,1-6.52,9.56,22.78,22.78,0,0,1-8.51,6,32.36,32.36,0,0,1-12.08,2,58.29,58.29,0,0,1-9-.63l-1-.17a7.7,7.7,0,0,1-6.07-9.38Z" transform="translate(-82.45 -240.86)"/></svg>