<svg width="16" height="16" viewBox="0 0 16 16" fill="none" xmlns="http://www.w3.org/2000/svg"><mask id="a" fill="#fff"><path fill-rule="evenodd" clip-rule="evenodd" d="M8 15.333A7.333 7.333 0 1 0 8 .667a7.333 7.333 0 0 0 0 14.666zM8 12a4 4 0 1 0 0-8 4 4 0 0 0 0 8z"/></mask><path d="M14.333 8A6.333 6.333 0 0 1 8 14.333v2A8.333 8.333 0 0 0 16.333 8h-2zM8 1.667A6.333 6.333 0 0 1 14.333 8h2A8.333 8.333 0 0 0 8-.333v2zM1.667 8A6.333 6.333 0 0 1 8 1.667v-2A8.333 8.333 0 0 0-.333 8h2zM8 14.333A6.333 6.333 0 0 1 1.667 8h-2A8.333 8.333 0 0 0 8 16.333v-2zM11 8a3 3 0 0 1-3 3v2a5 5 0 0 0 5-5h-2zM8 5a3 3 0 0 1 3 3h2a5 5 0 0 0-5-5v2zM5 8a3 3 0 0 1 3-3V3a5 5 0 0 0-5 5h2zm3 3a3 3 0 0 1-3-3H3a5 5 0 0 0 5 5v-2z" fill="#fff" mask="url(#a)"/><path d="M10.794 5.138l2.357-2.357m-2.323 8.047l2.357 2.357m-10.336.035l2.357-2.358M2.814 2.815l2.357 2.357" stroke="#fff"/></svg>