<svg id="Layer_1" data-name="Layer 1" xmlns="http://www.w3.org/2000/svg" viewBox="0 0 25 25"><defs><style>.cls-1{fill:url(#linear-gradient)}.cls-2{fill:none;stroke:#3a60d6;stroke-miterlimit:10}</style><linearGradient id="linear-gradient" x1="3.56" y1="12.72" x2="21.56" y2="12.72" gradientUnits="userSpaceOnUse"><stop offset="0" stop-color="#4793ff" stop-opacity=".5"/><stop offset=".45" stop-color="#4793ff" stop-opacity=".25"/><stop offset=".82" stop-color="#4793ff" stop-opacity=".07"/><stop offset="1" stop-color="#4793ff" stop-opacity="0"/></linearGradient></defs><title>Volume</title><path class="cls-1" d="M3.56 13.8l9.07 3.8 8.93-3.79v-2.18L12.5 7.84l-8.94 3.78v2.18z"/><path class="cls-2" d="M11.75 5.44L1.94 9.59a1.44 1.44 0 0 0-.88 1.32v3.59a1.44 1.44 0 0 0 .88 1.33l10 4.17a1.93 1.93 0 0 0 1.49 0l9.81-4.17a1.42 1.42 0 0 0 .87-1.32v-3.59a1.44 1.44 0 0 0-.88-1.33l-10-4.15a1.9 1.9 0 0 0-1.48 0z"/><path class="cls-2" d="M1.06 10l11 4.62a1.45 1.45 0 0 0 1.12 0L24.06 10m-11.43 4.53v5.72"/></svg>