<svg width="24" height="24" viewBox="0 0 24 24" fill="none" xmlns="http://www.w3.org/2000/svg"><g clip-path="url(#a)" fill-rule="evenodd" clip-rule="evenodd"><path d="M11.128 4.55a1 1 0 0 1 1.744 0l7.29 12.96A1 1 0 0 1 19.29 19H4.71a1 1 0 0 1-.872-1.49l7.29-12.96z" fill="#F56109"/><path d="M11 8.4c0-.22.18-.4.4-.4h1.2c.22 0 .4.18.4.4v4.2a.4.4 0 0 1-.4.4h-1.2a.4.4 0 0 1-.4-.4V8.4zm0 7.6a1 1 0 1 1 2 0 1 1 0 1 1-2 0z" fill="#fff"/></g><defs><clipPath id="a"><path fill="#fff" d="M0 0h24v24H0z"/></clipPath></defs></svg>