<svg width="200px" height="300px" viewBox="0 0 200 300" version="1.1" xmlns="http://www.w3.org/2000/svg" xmlns:xlink="http://www.w3.org/1999/xlink">
    <desc>Created with Sketch.</desc>
    <defs>
        <rect id="path-1" x="0" y="0" width="200" height="300" rx="6"></rect>
        <linearGradient x1="50%" y1="0%" x2="50%" y2="100%" id="linearGradient-3">
            <stop stop-color="#F1C538" stop-opacity="0.3" offset="0%"></stop>
            <stop stop-color="#F1C538" stop-opacity="0" offset="100%"></stop>
        </linearGradient>
        <path d="M0,129.008638 C0,126.794728 1.49449548,125.99703 3.32439818,127.217822 L8.66717897,130.782178 C10.5031934,132.007047 13.3862097,131.887634 15.1238837,130.501657 L18.8892999,127.498343 C20.619225,126.118546 23.556775,124.075649 25.4509404,122.93514 L28.5571163,121.06486 C30.4510851,119.924469 33.5254364,119.924351 35.410336,121.056465 L38.5521884,122.943535 C40.4431483,124.079289 42.970682,123.506904 44.1936374,121.671014 L49.7505765,113.328986 C50.9753028,111.490438 53.563327,110.792265 55.5458254,111.776891 L58.4577147,113.223109 C60.4336159,114.204459 62.834011,113.397124 63.8168929,111.424401 L70.2186295,98.5755992 C71.2025207,96.6008503 73.2605685,93.7334931 74.8253878,92.16115 L79.1270048,87.83885 C80.687356,86.2709964 83.6161655,85.6605186 85.6756821,86.4780877 L88.3051529,87.5219123 C90.3615363,88.3382376 93.0686469,87.541374 94.3564859,85.7352908 L99.6834311,78.2647092 C100.969107,76.4616601 103.272603,76.2665069 104.83842,77.83885 L109.142781,82.16115 C110.704127,83.7290036 113.435163,83.9746433 115.245382,82.7079382 L118.697856,80.2920618 C120.506883,79.026191 123.514387,77.0756492 125.401751,75.9435347 L128.547712,74.0564653 C130.441144,72.9207109 132.638383,70.3403191 133.458876,68.2842424 L140.469713,50.7157576 C141.288642,48.6636013 142.826873,48.5658937 143.902324,50.4919239 L150.053487,61.5080761 C151.130337,63.4366124 152.801261,63.3971241 153.783348,61.4244008 L160.179909,48.5755992 C161.163004,46.6008503 162.760949,43.3971241 163.746757,41.4244008 L170.16755,28.5755992 C171.15437,26.6008503 173.281961,23.8048695 174.926911,22.3240707 L178.979461,18.6759293 C180.621164,17.1980544 182.992389,14.541374 184.274281,12.744114 L189.615245,5.25588602 C190.897791,3.45770982 193.699167,1.7302711 195.892129,1.39450654 L201.045371,0.605493456 C203.229452,0.271088654 205,1.78218236 205,4.00001131 L205,229.004321 C205,231.763358 202.767508,234 199.997581,234 L192.013306,234 L181.942505,234 L171.976074,234 L161.983032,234 L152.011597,234 L141.975586,234 L131.999023,234 L121.943481,234 L112.014648,234 L101.96228,234 L92.019043,234 L82.0025635,234 L72.0001221,234 L62.0014648,234 L52.0141602,234 L41.9312744,234 L32.0056152,234 L22.0216064,234 L12.0350342,234 L4.99938313,234 C2.23830007,234 0,231.760862 0,228.997342 L0,129.008638 Z" id="path-4"></path>
        <linearGradient x1="50%" y1="0%" x2="50%" y2="100%" id="linearGradient-5">
            <stop stop-color="#FF5559" stop-opacity="0.3" offset="0%"></stop>
            <stop stop-color="#FF5559" stop-opacity="0" offset="100%"></stop>
        </linearGradient>
        <path d="M0,179.008925 C0,176.794857 1.26064415,173.73847 2.82665156,172.171363 L9.16492558,165.828637 C10.7260421,164.266424 13.7386749,163.348373 15.9125415,163.781845 L18.1006421,164.218155 C20.2661309,164.649956 23.556775,164.075649 25.4509404,162.93514 L28.5571163,161.06486 C30.4510851,159.924469 33.5254364,159.924351 35.410336,161.056465 L38.5521884,162.943535 C40.4431483,164.079289 42.970682,163.506904 44.1936374,161.671014 L49.7505765,153.328986 C50.9753028,151.490438 53.2815643,148.789376 55.0084886,147.4199 C55.0084886,147.4199 57.8821713,143.96335 62.0354004,145 C66.1886295,146.03665 70.7477152,161.206494 70.7477152,161.206494 C71.4394004,163.30159 73.2605685,163.733493 74.8253878,162.16115 L79.1270048,157.83885 C80.687356,156.270996 83.6161655,155.660519 85.6756821,156.478088 L88.3051529,157.521912 C90.3615363,158.338238 92.7147219,157.350383 93.5664975,155.302597 L100.473419,138.697403 C101.322796,136.655384 103.406524,136.120789 105.13496,137.5093 L108.846241,140.4907 C110.571362,141.876548 113.57709,142.196663 115.553101,141.209008 L118.390136,139.790992 C120.369112,138.801854 123.636357,138.665009 125.683805,139.483768 L128.265658,140.516232 C130.314864,141.335694 132.969127,140.506904 134.19017,138.671014 L139.738419,130.328986 C140.96123,128.490438 143.703227,126.651627 145.867189,126.221021 L148.088622,125.778979 C150.250637,125.348761 153.794847,125 155.995683,125 L157.967574,125 C160.172509,125 163.225757,123.733493 164.783875,122.174499 L169.130431,117.825501 C170.690036,116.26502 173.281961,113.804869 174.926911,112.324071 L178.979461,108.675929 C180.621164,107.198054 182.638368,104.350383 183.490373,102.302597 L190.399153,85.6974033 C191.248759,83.6553838 193.704409,81.7070409 195.887214,81.3451252 L200.050286,80.6548748 C202.231653,80.2931974 204,81.7827491 204,84.0006556 L204,229.007218 C204,231.764655 201.759456,234 199.00336,234 L192.013306,234 L181.942505,234 L171.976074,234 L161.983032,234 L152.011597,234 L141.975586,234 L131.999023,234 L121.943481,234 L112.014648,234 L101.96228,234 L92.019043,234 L82.0025635,234 L72.0001221,234 L62.0014648,234 L52.0141602,234 L41.9312744,234 L32.0056152,234 L22.0216064,234 L12.0350342,234 L4.99938313,234 C2.23830007,234 0,231.759175 0,228.995144 L0,179.008925 Z" id="path-6"></path>
        <linearGradient x1="50%" y1="0%" x2="50%" y2="98.1425383%" id="linearGradient-7">
            <stop stop-color="#29997A" stop-opacity="0.2" offset="0%"></stop>
            <stop stop-color="#29997A" stop-opacity="0" offset="100%"></stop>
        </linearGradient>
        <path d="M0,203.002816 C0,200.792122 1.26064415,197.73847 2.82665156,196.171363 L9.16492558,189.828637 C10.7260421,188.266424 13.7386749,187.348373 15.9125415,187.781845 L18.1006421,188.218155 C20.2661309,188.649956 23.556775,188.075649 25.4509404,186.93514 L28.5571163,185.06486 C30.4510851,183.924469 33.5254364,183.924351 35.410336,185.056465 L38.5521884,186.943535 C40.4431483,188.079289 43.5814724,189.803337 45.5552163,190.790992 L48.3889976,192.209008 C50.3657032,193.198146 53.563327,193.207735 55.5458254,192.223109 L58.4577147,190.776891 C60.4336159,189.795541 63.2974393,187.733493 64.8642354,186.16115 L69.171287,181.83885 C70.7336095,180.270996 73.5333348,179.924351 75.425087,181.06486 L78.5273056,182.93514 C80.4188615,184.075531 82.9926589,183.554485 84.2893016,181.75293 L89.6915334,174.24707 C90.98224,172.453763 93.0686469,172.458626 94.3564859,174.264709 L99.6834311,181.735291 C100.969107,183.53834 103.272603,183.733493 104.83842,182.16115 L109.142781,177.83885 C110.704127,176.270996 112.875239,173.46138 113.994214,171.559796 L119.949023,161.440204 C121.067049,159.540232 123.738643,157.647044 125.898006,157.215287 L128.051457,156.784713 C130.218963,156.351328 133.578962,155.196663 135.549619,154.209008 L138.378969,152.790992 C140.352584,151.801854 143.105467,149.623447 144.514757,147.940844 L149.441054,142.059156 C150.856141,140.369631 152.801261,140.602876 153.783348,142.575599 L160.179909,155.424401 C161.163004,157.39915 163.225757,157.733493 164.783875,156.174499 L169.130431,151.825501 C170.690036,150.26502 173.281961,147.804869 174.926911,146.324071 L178.979461,142.675929 C180.621164,141.198054 182.992389,138.541374 184.274281,136.744114 L189.615245,129.255886 C190.897791,127.45771 193.261887,124.783338 194.885267,123.292003 L202.052233,116.707997 C203.68024,115.212411 205,115.794869 205,117.996266 L205,219.005771 C205,221.764007 202.767508,224 199.997581,224 L192.013306,224 L181.942505,224 L171.976074,224 L161.983032,224 L152.011597,224 L141.975586,224 L131.999023,224 L121.943481,224 L112.014648,224 L101.96228,224 L92.019043,224 L82.0025635,224 L72.0001221,224 L62.0014648,224 L52.0141602,224 L41.9312744,224 L32.0056152,224 L22.0216064,224 L12.0350342,224 L4.99938313,224 C2.23830007,224 0,221.759415 0,219.000963 L0,203.002816 Z" id="path-8"></path>
    </defs>
    <g id="General" stroke="none" stroke-width="1" fill="none" fill-rule="evenodd">
        <g id="Group-2">
            <g id="Group-4">
                <mask id="mask-2" fill="white">
                    <use xlink:href="#path-1"></use>
                </mask>
                <use id="Mask" fill="#A60E88" xlink:href="#path-1"></use>
                <g mask="url(#mask-2)" id="Rectangle-20">
                    <g transform="translate(-2.000000, 78.000000)">
                        <g>
                            <use fill="url(#linearGradient-3)" fill-rule="evenodd" xlink:href="#path-4"></use>
                            <path stroke="#F1C538" stroke-width="1.5" d="M0.75,129.008638 L0.75,228.997342 C0.75,231.346527 2.65239236,233.25 4.99938313,233.25 L199.997581,233.25 C202.350879,233.25 204.25,231.351559 204.25,229.004321 L204.25,4.00001131 C204.25,2.24497519 202.89212,1.08147762 201.158881,1.34685405 L196.005639,2.13586714 C194.016006,2.4404999 191.39263,4.05552044 190.225845,5.69139504 L184.884881,13.179623 C183.571041,15.0216746 181.163266,17.7191758 179.481249,19.233342 L175.428699,22.8814834 C173.85465,24.298456 171.783974,27.018739 170.838446,28.9108587 L164.417652,41.7596603 C163.431664,43.7327455 161.833889,46.9361336 160.85131,48.9098451 L154.454749,61.7586467 C153.203422,64.2721934 150.768907,64.327712 149.398655,61.8737192 L143.247492,50.8575669 C142.479322,49.4818482 141.750822,49.5289716 141.166297,50.9937346 L134.155459,68.5622194 C133.274666,70.769403 130.968958,73.4786882 128.933507,74.6996307 L125.787547,76.5867001 C123.913147,77.7110384 120.92048,79.6521603 119.12785,80.9065573 L115.675376,83.3224336 C113.566685,84.7979952 110.430011,84.5166175 108.611349,82.6903761 L104.306988,78.3680761 C103.070651,77.1265858 101.311688,77.2730415 100.294086,78.7001406 L94.9671409,86.1707222 C93.479704,88.2567242 90.4068018,89.1631406 88.0284308,88.2189954 L85.3989601,87.1751709 C83.6193558,86.468719 81.008206,87.0118168 79.6586053,88.3679067 L75.3569882,92.6902066 C73.8503797,94.2040591 71.8389365,97.005315 70.8899229,98.9100618 L64.4881863,111.758863 C63.3204349,114.102635 60.4700147,115.059944 58.1241008,113.894824 L55.2122115,112.448607 C53.5704931,111.633232 51.391781,112.21805 50.3747665,113.744783 L44.8178275,122.08681 C43.3723571,124.256738 40.3997177,124.928087 38.166022,123.586478 L35.0241696,121.699408 C33.3751645,120.708977 30.5981848,120.711359 28.9439877,121.707379 L25.8378118,123.577659 C23.9718529,124.701184 21.0612855,126.725304 19.3569643,128.084679 L15.5915482,131.087993 C13.6015357,132.675237 10.3613255,132.813985 8.25095159,131.406081 L2.90817079,127.841725 C1.57516417,126.95243 0.75,127.395674 0.75,129.008638 Z"></path>
                        </g>
                        <g>
                            <use fill="url(#linearGradient-5)" fill-rule="evenodd" xlink:href="#path-6"></use>
                            <path stroke="#FF5559" stroke-width="1.5" d="M0.75,179.008925 L0.75,228.995144 C0.75,231.345173 2.65272487,233.25 4.99938313,233.25 L199.00336,233.25 C201.346652,233.25 203.25,231.349034 203.25,229.007218 L203.25,84.0006556 C203.25,82.249315 201.900696,81.1083103 200.172964,81.3947736 L196.009891,82.085024 C194.082737,82.4045522 191.842087,84.1817425 191.09161,85.9855077 L184.18283,102.590701 C183.28888,104.739301 181.207319,107.679519 179.481249,109.233342 L175.428699,112.881483 C173.79467,114.35245 171.212258,116.803463 169.66091,118.355682 L165.314354,122.70468 C163.615096,124.404894 160.370822,125.75 157.967574,125.75 L155.995683,125.75 C153.842565,125.75 150.34741,126.094209 148.234994,126.514557 L146.013561,126.956599 C144.045995,127.348124 141.47571,129.071189 140.362909,130.744332 L134.81466,139.08636 C133.396512,141.218604 130.365057,142.163511 127.987179,141.212615 L125.405326,140.180151 C123.556249,139.440719 120.512387,139.568709 118.725452,140.46186 L115.888416,141.879876 C113.649282,142.999046 110.329251,142.644084 108.376532,141.075399 L104.665251,138.094 C103.327503,137.019342 101.823981,137.403331 101.165903,138.985442 L94.2589814,155.590635 C93.2506914,158.014703 90.4671603,159.187101 88.0284308,158.218995 L85.3989601,157.175171 C83.6193558,156.468719 81.008206,157.011817 79.6586053,158.367907 L75.3569882,162.690207 C73.399544,164.657063 70.9033774,164.070323 70.0294516,161.422359 C69.9924619,161.29928 69.9200446,161.065129 69.8149128,160.735835 C69.6391068,160.185177 69.4359855,159.571128 69.208281,158.909651 C68.5579991,157.020597 67.8418497,155.132003 67.0824423,153.37264 C65.5127906,149.736138 63.9629947,147.140552 62.6082677,146.120734 C62.3338097,145.914126 62.080753,145.78433 61.853772,145.727675 C60.070234,145.282503 58.413523,145.717918 56.9306473,146.732045 C56.5485886,146.993332 56.2095656,147.273543 55.9189651,147.552523 C55.7487691,147.715913 55.6359175,147.838379 55.5852102,147.899371 L55.4745026,148.007549 C53.9240382,149.23709 51.6633135,151.810427 50.3747665,153.744783 L44.8178275,162.08681 C43.3723571,164.256738 40.3997177,164.928087 38.166022,163.586478 L35.0241696,161.699408 C33.3751645,160.708977 30.5981848,160.711359 28.9439877,161.707379 L25.8378118,163.577659 C23.7837123,164.814467 20.3028252,165.422038 17.9539785,164.953675 L15.7658779,164.517365 C13.8408925,164.133521 11.0815226,164.971726 9.69544182,166.358781 L3.3571678,172.701507 C1.93353433,174.12614 0.75,176.991073 0.75,179.008925 Z"></path>
                        </g>
                        <g>
                            <use fill="url(#linearGradient-7)" fill-rule="evenodd" xlink:href="#path-8"></use>
                            <path stroke="#01C864" stroke-width="1.5" d="M0.75,203.002816 L0.75,219.000963 C0.75,221.346089 2.65340083,223.25 4.99938313,223.25 L12.0350342,223.25 L192.013306,223.25 L199.997581,223.25 C202.350928,223.25 204.25,221.352158 204.25,219.005771 L204.25,117.996266 C204.25,116.446219 203.705583,116.207567 202.559624,117.260314 L195.392659,123.84432 C193.806028,125.301895 191.476866,127.937418 190.225845,129.691395 L184.884881,137.179623 C183.571041,139.021675 181.163266,141.719176 179.481249,143.233342 L175.428699,146.881483 C173.79467,148.35245 171.212258,150.803463 169.66091,152.355682 L165.314354,156.70468 C163.393488,158.626626 160.719765,158.191705 159.508507,155.758647 L153.111947,142.909845 C152.370265,141.420025 151.083219,141.266562 150.016021,142.540729 L145.089724,148.422417 C143.61255,150.18607 140.777562,152.427786 138.715013,153.461496 L135.885663,154.879511 C133.854154,155.897664 130.430493,157.073878 128.198506,157.520156 L126.045055,157.95073 C124.092043,158.341228 121.603561,160.107327 120.595415,161.820569 L114.640606,171.940161 C113.490005,173.895492 111.280386,176.755209 109.674213,178.368076 L105.369852,182.690376 C103.477643,184.590471 100.629071,184.353291 99.0727761,182.170722 L93.7458309,174.700141 C92.756753,173.313044 91.2913596,173.30816 90.3002605,174.685193 L84.8980287,182.191052 C83.3751419,184.306951 80.3689617,184.921205 78.1400722,183.577441 L75.0378536,181.70716 C73.4420537,180.745077 71.0214269,181.044699 69.7025534,182.368242 L65.3955018,186.690542 C63.7725931,188.319196 60.8424252,190.42991 58.7913285,191.448607 L55.8794392,192.894824 C53.6881523,193.983148 50.2427215,193.975265 48.0533744,192.879722 L45.219593,191.461706 C43.2276401,190.464939 40.0725003,188.731553 38.166022,187.586478 L35.0241696,185.699408 C33.3751645,184.708977 30.5981848,184.711359 28.9439877,185.707379 L25.8378118,187.577659 C23.7837123,188.814467 20.3028252,189.422038 17.9539785,188.953675 L15.7658779,188.517365 C13.8408925,188.133521 11.0815226,188.971726 9.69544182,190.358781 L3.3571678,196.701507 C1.93347396,198.126201 0.75,200.988427 0.75,203.002816 Z"></path>
                        </g>
                    </g>
                </g>
            </g>
            <path d="M8.2421875,71.9365234 L8.2421875,71.9414062 L9.09179688,71.9414062 L9.09179688,71.9365234 C9.09179688,71.1064453 9.6484375,70.5546875 10.4736328,70.5546875 C11.25,70.5546875 11.8505859,71.0966797 11.8505859,71.7998047 C11.8505859,72.3662109 11.6308594,72.7470703 10.7226562,73.7333984 L8.28613281,76.3945312 L8.28613281,77 L12.8466797,77 L12.8466797,76.2089844 L9.54589844,76.2089844 L9.54589844,76.1308594 L11.2402344,74.3095703 C12.3974609,73.0693359 12.7294922,72.4980469 12.7294922,71.765625 C12.7294922,70.6474609 11.7626953,69.7880859 10.4980469,69.7880859 C9.18945312,69.7880859 8.2421875,70.6865234 8.2421875,71.9365234 Z M16.7675781,77.1660156 C18.2275391,77.1660156 19.2285156,76.1894531 19.2285156,74.7587891 C19.2285156,73.3720703 18.2910156,72.4003906 16.953125,72.4003906 C16.3037109,72.4003906 15.8056641,72.6005859 15.4638672,73.0009766 L15.3857422,73.0009766 L15.5859375,70.7402344 L18.828125,70.7402344 L18.828125,69.9541016 L14.8974609,69.9541016 L14.5117188,73.9482422 L15.3369141,73.9482422 C15.625,73.4453125 16.1523438,73.1572266 16.7919922,73.1572266 C17.7148438,73.1572266 18.3496094,73.8164062 18.3496094,74.7832031 C18.3496094,75.75 17.7197266,76.3945312 16.7773438,76.3945312 C15.9472656,76.3945312 15.3417969,75.8867188 15.2636719,75.125 L14.3994141,75.125 C14.4775391,76.3408203 15.4345703,77.1660156 16.7675781,77.1660156 Z M20.703125,71.9365234 L20.703125,71.9414062 L21.5527344,71.9414062 L21.5527344,71.9365234 C21.5527344,71.1064453 22.109375,70.5546875 22.9345703,70.5546875 C23.7109375,70.5546875 24.3115234,71.0966797 24.3115234,71.7998047 C24.3115234,72.3662109 24.0917969,72.7470703 23.1835938,73.7333984 L20.7470703,76.3945312 L20.7470703,77 L25.3076172,77 L25.3076172,76.2089844 L22.0068359,76.2089844 L22.0068359,76.1308594 L23.7011719,74.3095703 C24.8583984,73.0693359 25.1904297,72.4980469 25.1904297,71.765625 C25.1904297,70.6474609 24.2236328,69.7880859 22.9589844,69.7880859 C21.6503906,69.7880859 20.703125,70.6865234 20.703125,71.9365234 Z M27.8759766,74.0361328 L27.7978516,74.0361328 L27.7978516,69.6464844 L26.9580078,69.6464844 L26.9580078,77 L27.7978516,77 L27.7978516,75.0029297 L28.3007812,74.5341797 L30.2734375,77 L31.3427734,77 L28.9257812,73.9921875 L31.1914062,71.7363281 L30.1611328,71.7363281 L27.8759766,74.0361328 Z M9.97070312,117 L10.8496094,117 L10.8496094,109.954102 L9.97558594,109.954102 L8.10058594,111.301758 L8.10058594,112.229492 L9.89257812,110.930664 L9.97070312,110.930664 L9.97070312,117 Z M15.390625,117.166016 C16.8505859,117.166016 17.8515625,116.189453 17.8515625,114.758789 C17.8515625,113.37207 16.9140625,112.400391 15.5761719,112.400391 C14.9267578,112.400391 14.4287109,112.600586 14.0869141,113.000977 L14.0087891,113.000977 L14.2089844,110.740234 L17.4511719,110.740234 L17.4511719,109.954102 L13.5205078,109.954102 L13.1347656,113.948242 L13.9599609,113.948242 C14.2480469,113.445312 14.7753906,113.157227 15.4150391,113.157227 C16.3378906,113.157227 16.9726562,113.816406 16.9726562,114.783203 C16.9726562,115.75 16.3427734,116.394531 15.4003906,116.394531 C14.5703125,116.394531 13.9648438,115.886719 13.8867188,115.125 L13.0224609,115.125 C13.1005859,116.34082 14.0576172,117.166016 15.390625,117.166016 Z M21.7382812,117.166016 C20.1513672,117.166016 19.2382812,115.818359 19.2382812,113.474609 C19.2382812,111.150391 20.1611328,109.788086 21.7382812,109.788086 C23.3056641,109.788086 24.2285156,111.155273 24.2285156,113.489258 C24.2285156,115.828125 23.3203125,117.166016 21.7382812,117.166016 Z M21.7382812,116.399414 C22.7783203,116.399414 23.3447266,115.364258 23.3447266,113.474609 C23.3447266,111.604492 22.7685547,110.55957 21.7382812,110.55957 C20.7080078,110.55957 20.1220703,111.614258 20.1220703,113.474609 C20.1220703,115.359375 20.6982422,116.399414 21.7382812,116.399414 Z M9.97070312,157 L10.8496094,157 L10.8496094,149.954102 L9.97558594,149.954102 L8.10058594,151.301758 L8.10058594,152.229492 L9.89257812,150.930664 L9.97070312,150.930664 L9.97070312,157 Z M15.4345703,157.166016 C13.8476562,157.166016 12.9345703,155.818359 12.9345703,153.474609 C12.9345703,151.150391 13.8574219,149.788086 15.4345703,149.788086 C17.0019531,149.788086 17.9248047,151.155273 17.9248047,153.489258 C17.9248047,155.828125 17.0166016,157.166016 15.4345703,157.166016 Z M15.4345703,156.399414 C16.4746094,156.399414 17.0410156,155.364258 17.0410156,153.474609 C17.0410156,151.604492 16.4648438,150.55957 15.4345703,150.55957 C14.4042969,150.55957 13.8183594,151.614258 13.8183594,153.474609 C13.8183594,155.359375 14.3945312,156.399414 15.4345703,156.399414 Z M21.8505859,157.166016 C20.2636719,157.166016 19.3505859,155.818359 19.3505859,153.474609 C19.3505859,151.150391 20.2734375,149.788086 21.8505859,149.788086 C23.4179688,149.788086 24.3408203,151.155273 24.3408203,153.489258 C24.3408203,155.828125 23.4326172,157.166016 21.8505859,157.166016 Z M21.8505859,156.399414 C22.890625,156.399414 23.4570312,155.364258 23.4570312,153.474609 C23.4570312,151.604492 22.8808594,150.55957 21.8505859,150.55957 C20.8203125,150.55957 20.234375,151.614258 20.234375,153.474609 C20.234375,155.359375 20.8105469,156.399414 21.8505859,156.399414 Z M10.6103516,197.166016 C12.0703125,197.166016 13.0712891,196.189453 13.0712891,194.758789 C13.0712891,193.37207 12.1337891,192.400391 10.7958984,192.400391 C10.1464844,192.400391 9.6484375,192.600586 9.30664062,193.000977 L9.22851562,193.000977 L9.42871094,190.740234 L12.6708984,190.740234 L12.6708984,189.954102 L8.74023438,189.954102 L8.35449219,193.948242 L9.1796875,193.948242 C9.46777344,193.445312 9.99511719,193.157227 10.6347656,193.157227 C11.5576172,193.157227 12.1923828,193.816406 12.1923828,194.783203 C12.1923828,195.75 11.5625,196.394531 10.6201172,196.394531 C9.79003906,196.394531 9.18457031,195.886719 9.10644531,195.125 L8.2421875,195.125 C8.3203125,196.34082 9.27734375,197.166016 10.6103516,197.166016 Z M16.9580078,197.166016 C15.3710938,197.166016 14.4580078,195.818359 14.4580078,193.474609 C14.4580078,191.150391 15.3808594,189.788086 16.9580078,189.788086 C18.5253906,189.788086 19.4482422,191.155273 19.4482422,193.489258 C19.4482422,195.828125 18.5400391,197.166016 16.9580078,197.166016 Z M16.9580078,196.399414 C17.9980469,196.399414 18.5644531,195.364258 18.5644531,193.474609 C18.5644531,191.604492 17.9882812,190.55957 16.9580078,190.55957 C15.9277344,190.55957 15.3417969,191.614258 15.3417969,193.474609 C15.3417969,195.359375 15.9179688,196.399414 16.9580078,196.399414 Z M8.2421875,231.936523 L8.2421875,231.941406 L9.09179688,231.941406 L9.09179688,231.936523 C9.09179688,231.106445 9.6484375,230.554688 10.4736328,230.554688 C11.25,230.554688 11.8505859,231.09668 11.8505859,231.799805 C11.8505859,232.366211 11.6308594,232.74707 10.7226562,233.733398 L8.28613281,236.394531 L8.28613281,237 L12.8466797,237 L12.8466797,236.208984 L9.54589844,236.208984 L9.54589844,236.130859 L11.2402344,234.30957 C12.3974609,233.069336 12.7294922,232.498047 12.7294922,231.765625 C12.7294922,230.647461 11.7626953,229.788086 10.4980469,229.788086 C9.18945312,229.788086 8.2421875,230.686523 8.2421875,231.936523 Z M16.7675781,237.166016 C18.2275391,237.166016 19.2285156,236.189453 19.2285156,234.758789 C19.2285156,233.37207 18.2910156,232.400391 16.953125,232.400391 C16.3037109,232.400391 15.8056641,232.600586 15.4638672,233.000977 L15.3857422,233.000977 L15.5859375,230.740234 L18.828125,230.740234 L18.828125,229.954102 L14.8974609,229.954102 L14.5117188,233.948242 L15.3369141,233.948242 C15.625,233.445312 16.1523438,233.157227 16.7919922,233.157227 C17.7148438,233.157227 18.3496094,233.816406 18.3496094,234.783203 C18.3496094,235.75 17.7197266,236.394531 16.7773438,236.394531 C15.9472656,236.394531 15.3417969,235.886719 15.2636719,235.125 L14.3994141,235.125 C14.4775391,236.34082 15.4345703,237.166016 16.7675781,237.166016 Z M10.6542969,277.166016 C9.06738281,277.166016 8.15429688,275.818359 8.15429688,273.474609 C8.15429688,271.150391 9.07714844,269.788086 10.6542969,269.788086 C12.2216797,269.788086 13.1445312,271.155273 13.1445312,273.489258 C13.1445312,275.828125 12.2363281,277.166016 10.6542969,277.166016 Z M10.6542969,276.399414 C11.6943359,276.399414 12.2607422,275.364258 12.2607422,273.474609 C12.2607422,271.604492 11.6845703,270.55957 10.6542969,270.55957 C9.62402344,270.55957 9.03808594,271.614258 9.03808594,273.474609 C9.03808594,275.359375 9.61425781,276.399414 10.6542969,276.399414 Z" id="252k-150-100-50-25-0" fill="#FFFFFF" opacity="0.400000006"></path>
            <path d="M51.0546875,29 L51.0546875,18.9921875 L54.6875,18.9921875 L54.6875,17.7265625 L46.015625,17.7265625 L46.015625,18.9921875 L49.6484375,18.9921875 L49.6484375,29 L51.0546875,29 Z M59.8359375,27.9375 C61.4296875,27.9375 62.328125,26.78125 62.328125,24.7890625 C62.328125,22.7890625 61.4296875,21.640625 59.8359375,21.640625 C58.2421875,21.640625 57.34375,22.7890625 57.34375,24.7890625 C57.34375,26.78125 58.2421875,27.9375 59.8359375,27.9375 Z M59.8359375,29.1484375 C57.4375,29.1484375 55.953125,27.4921875 55.953125,24.7890625 C55.953125,22.078125 57.4375,20.4296875 59.8359375,20.4296875 C62.234375,20.4296875 63.71875,22.078125 63.71875,24.7890625 C63.71875,27.4921875 62.234375,29.1484375 59.8359375,29.1484375 Z M66.078125,18.3984375 L66.078125,20.578125 L64.71875,20.578125 L64.71875,21.703125 L66.078125,21.703125 L66.078125,26.8125 C66.078125,28.421875 66.7734375,29.0625 68.5078125,29.0625 C68.7734375,29.0625 69.03125,29.03125 69.296875,28.984375 L69.296875,27.8515625 C69.046875,27.875 68.9140625,27.8828125 68.671875,27.8828125 C67.796875,27.8828125 67.421875,27.4609375 67.421875,26.46875 L67.421875,21.703125 L69.296875,21.703125 L69.296875,20.578125 L67.421875,20.578125 L67.421875,18.3984375 L66.078125,18.3984375 Z M73.609375,27.96875 C74.9921875,27.96875 76.015625,27.0625 76.015625,25.859375 L76.015625,25.0859375 L73.75,25.234375 C72.46875,25.3203125 71.90625,25.765625 71.90625,26.609375 C71.90625,27.46875 72.6328125,27.96875 73.609375,27.96875 Z M73.359375,29.1484375 C71.7265625,29.1484375 70.515625,28.1796875 70.515625,26.640625 C70.515625,25.1328125 71.625,24.265625 73.5859375,24.1484375 L76.015625,24 L76.015625,23.234375 C76.015625,22.1953125 75.3671875,21.625 74.109375,21.625 C73.1015625,21.625 72.3984375,22.0078125 72.2109375,22.671875 L70.8515625,22.671875 C71.03125,21.3203125 72.359375,20.4296875 74.15625,20.4296875 C76.2109375,20.4296875 77.359375,21.484375 77.359375,23.234375 L77.359375,29 L76.078125,29 L76.078125,27.7578125 L75.953125,27.7578125 C75.40625,28.65625 74.484375,29.1484375 73.359375,29.1484375 Z M79.609375,29 L80.953125,29 L80.953125,17.234375 L79.609375,17.234375 L79.609375,29 Z M87.453125,29 L88.796875,29 L88.796875,23.78125 C88.796875,22.59375 89.7265625,21.734375 91.0078125,21.734375 C91.2734375,21.734375 91.7578125,21.78125 91.8671875,21.8125 L91.8671875,20.46875 C91.6953125,20.4453125 91.4140625,20.4296875 91.1953125,20.4296875 C90.078125,20.4296875 89.109375,21.0078125 88.859375,21.828125 L88.734375,21.828125 L88.734375,20.578125 L87.453125,20.578125 L87.453125,29 Z M96.59375,21.6171875 C95.25,21.6171875 94.3125,22.6015625 94.2109375,24.09375 L98.8515625,24.09375 C98.8203125,22.6015625 97.9296875,21.6171875 96.59375,21.6171875 Z M98.8125,26.8203125 L100.15625,26.8203125 C99.75,28.265625 98.453125,29.1484375 96.609375,29.1484375 C94.2734375,29.1484375 92.8125,27.4609375 92.8125,24.796875 C92.8125,22.1484375 94.296875,20.4296875 96.609375,20.4296875 C98.8828125,20.4296875 100.265625,22.046875 100.265625,24.6640625 L100.265625,25.1796875 L94.2109375,25.1796875 L94.2109375,25.2421875 C94.28125,26.90625 95.2109375,27.9609375 96.640625,27.9609375 C97.7265625,27.9609375 98.4609375,27.5625 98.8125,26.8203125 Z M105.164062,20.4296875 C106.3125,20.4296875 107.359375,21.0390625 107.859375,21.984375 L107.984375,21.984375 L107.984375,20.578125 L109.28125,20.578125 L109.28125,31.8125 L107.921875,31.8125 L107.921875,27.734375 L107.796875,27.734375 C107.257812,28.65625 106.351562,29.1484375 105.164062,29.1484375 C103.015625,29.1484375 101.640625,27.4453125 101.640625,24.7890625 C101.640625,22.1484375 103.03125,20.4296875 105.164062,20.4296875 Z M105.46875,27.9375 C107.007812,27.9375 107.960938,26.7265625 107.960938,24.7890625 C107.960938,22.859375 107,21.640625 105.476562,21.640625 C103.945312,21.640625 103.03125,22.8203125 103.03125,24.7890625 C103.03125,26.765625 103.9375,27.9375 105.46875,27.9375 Z M118.3125,20.578125 L116.96875,20.578125 L116.96875,25.5625 C116.96875,27.0390625 116.15625,27.921875 114.671875,27.921875 C113.328125,27.921875 112.765625,27.21875 112.765625,25.703125 L112.765625,20.578125 L111.421875,20.578125 L111.421875,26.03125 C111.421875,28.0234375 112.40625,29.1484375 114.296875,29.1484375 C115.585938,29.1484375 116.484375,28.6171875 116.90625,27.6796875 L117.03125,27.6796875 L117.03125,29 L118.3125,29 L118.3125,20.578125 Z M123.890625,21.6171875 C122.546875,21.6171875 121.609375,22.6015625 121.507812,24.09375 L126.148438,24.09375 C126.117188,22.6015625 125.226562,21.6171875 123.890625,21.6171875 Z M126.109375,26.8203125 L127.453125,26.8203125 C127.046875,28.265625 125.75,29.1484375 123.90625,29.1484375 C121.570312,29.1484375 120.109375,27.4609375 120.109375,24.796875 C120.109375,22.1484375 121.59375,20.4296875 123.90625,20.4296875 C126.179688,20.4296875 127.5625,22.046875 127.5625,24.6640625 L127.5625,25.1796875 L121.507812,25.1796875 L121.507812,25.2421875 C121.578125,26.90625 122.507812,27.9609375 123.9375,27.9609375 C125.023438,27.9609375 125.757812,27.5625 126.109375,26.8203125 Z M129.164062,22.8828125 C129.164062,24.1015625 129.882812,24.78125 131.460938,25.1640625 L132.90625,25.515625 C133.804688,25.734375 134.242188,26.125 134.242188,26.703125 C134.242188,27.4765625 133.429688,28.015625 132.296875,28.015625 C131.21875,28.015625 130.546875,27.5625 130.320312,26.8515625 L128.9375,26.8515625 C129.085938,28.25 130.375,29.1484375 132.25,29.1484375 C134.164062,29.1484375 135.625,28.109375 135.625,26.6015625 C135.625,25.390625 134.859375,24.703125 133.273438,24.3203125 L131.976562,24.0078125 C130.984375,23.765625 130.515625,23.40625 130.515625,22.828125 C130.515625,22.078125 131.296875,21.5703125 132.296875,21.5703125 C133.3125,21.5703125 133.96875,22.015625 134.148438,22.6875 L135.476562,22.6875 C135.296875,21.3046875 134.070312,20.4296875 132.304688,20.4296875 C130.515625,20.4296875 129.164062,21.484375 129.164062,22.8828125 Z M137.984375,18.3984375 L137.984375,20.578125 L136.625,20.578125 L136.625,21.703125 L137.984375,21.703125 L137.984375,26.8125 C137.984375,28.421875 138.679688,29.0625 140.414062,29.0625 C140.679688,29.0625 140.9375,29.03125 141.203125,28.984375 L141.203125,27.8515625 C140.953125,27.875 140.820312,27.8828125 140.578125,27.8828125 C139.703125,27.8828125 139.328125,27.4609375 139.328125,26.46875 L139.328125,21.703125 L141.203125,21.703125 L141.203125,20.578125 L139.328125,20.578125 L139.328125,18.3984375 L137.984375,18.3984375 Z M142.726562,22.8828125 C142.726562,24.1015625 143.445312,24.78125 145.023438,25.1640625 L146.46875,25.515625 C147.367188,25.734375 147.804688,26.125 147.804688,26.703125 C147.804688,27.4765625 146.992188,28.015625 145.859375,28.015625 C144.78125,28.015625 144.109375,27.5625 143.882812,26.8515625 L142.5,26.8515625 C142.648438,28.25 143.9375,29.1484375 145.8125,29.1484375 C147.726562,29.1484375 149.1875,28.109375 149.1875,26.6015625 C149.1875,25.390625 148.421875,24.703125 146.835938,24.3203125 L145.539062,24.0078125 C144.546875,23.765625 144.078125,23.40625 144.078125,22.828125 C144.078125,22.078125 144.859375,21.5703125 145.859375,21.5703125 C146.875,21.5703125 147.53125,22.015625 147.710938,22.6875 L149.039062,22.6875 C148.859375,21.3046875 147.632812,20.4296875 145.867188,20.4296875 C144.078125,20.4296875 142.726562,21.484375 142.726562,22.8828125 Z" id="Total-requests" fill="#FFFFFF"></path>
            <rect id="Rectangle-21" fill="#FFFFFF" opacity="0.100000001" x="0" y="45" width="200" height="1"></rect>
        </g>
    </g>
</svg>
