<svg width="200px" height="300px" viewBox="0 0 200 300" version="1.1" xmlns="http://www.w3.org/2000/svg" xmlns:xlink="http://www.w3.org/1999/xlink">
    <desc>Created with Sketch.</desc>
    <defs>
        <rect id="path-1" x="0" y="0" width="200" height="300" rx="6"></rect>
        <linearGradient x1="50%" y1="0%" x2="50%" y2="100%" id="linearGradient-3">
            <stop stop-color="#F1C538" stop-opacity="0.2" offset="0%"></stop>
            <stop stop-color="#F1C538" stop-opacity="0" offset="100%"></stop>
        </linearGradient>
        <path d="M0,93.0086383 C0,90.7947285 1.26064415,87.7384704 2.82665156,86.171363 L9.16492558,79.828637 C10.7260421,78.2664239 13.142149,78.3765526 14.5615343,80.0747154 L19.4516493,85.9252846 C20.8709975,87.623403 23.556775,88.0756492 25.4509404,86.9351404 L28.5571163,85.0648596 C30.4510851,83.9244691 33.5254364,83.9243508 35.410336,85.0564653 L38.5521884,86.9435347 C40.4431483,88.0792891 42.970682,87.5069036 44.1936374,85.6710138 L49.7505765,77.3289862 C50.9753028,75.4904379 53.563327,74.7922649 55.5458254,75.7768914 L58.4577147,77.2231086 C60.4336159,78.2044586 62.834011,77.3971241 63.8168929,75.4244008 L70.2186295,62.5755992 C71.2025207,60.6008503 72.5637076,57.3011138 73.2605685,55.2004793 L80.691824,32.7995207 C81.3879494,30.7011034 82.909308,27.4803341 84.0830341,25.6165916 L89.8978008,16.3834084 C91.0745891,14.5148036 93.0686469,11.541374 94.3564859,9.73529079 L99.6834311,2.26470921 C100.969107,0.4616601 103.272603,0.26650691 104.83842,1.83885002 L109.142781,6.16114998 C110.704127,7.72900355 112.486617,10.7047335 113.132053,12.8339171 L120.811184,38.1660829 C121.453052,40.2834968 122.476278,43.709366 123.10138,45.8341407 L130.848083,72.1658593 C131.471055,74.2833967 132.638383,74.3403191 133.458876,72.2842424 L140.469713,54.7157576 C141.288642,52.6636013 142.826873,52.5658937 143.902324,54.4919239 L150.053487,65.5080761 C151.130337,67.4366124 152.801261,70.6028759 153.783348,72.5755992 L160.179909,85.4244008 C161.163004,87.3991497 163.225757,87.7334931 164.783875,86.1744989 L169.130431,81.8255011 C170.690036,80.2650199 173.281961,77.8048695 174.926911,76.3240707 L178.979461,72.6759293 C180.621164,71.1980544 183.490373,70.9243508 185.38846,72.0648596 L188.501066,73.9351404 C190.398956,75.0755309 193.4615,76.9333586 195.352456,78.0914563 L201.585044,81.9085437 C203.471072,83.0636231 205,85.7906678 205,87.9904763 L205,192.991424 C205,195.757584 202.767508,198 199.997581,198 L192.013306,198 L181.942505,198 L171.976074,198 L161.983032,198 L152.011597,198 L141.975586,198 L131.999023,198 L121.943481,198 L112.014648,198 L101.96228,198 L92.019043,198 L82.0025635,198 L72.0001221,198 L62.0014648,198 L52.0141602,198 L41.9312744,198 L32.0056152,198 L22.0216064,198 L12.0350342,198 L4.99938313,198 C2.23830007,198 0,195.760862 0,192.997342 L0,93.0086383 Z" id="path-4"></path>
        <linearGradient x1="50%" y1="0%" x2="50%" y2="100%" id="linearGradient-5">
            <stop stop-color="#FF5559" stop-opacity="0.2" offset="0%"></stop>
            <stop stop-color="#FF5559" stop-opacity="0" offset="100%"></stop>
        </linearGradient>
        <path d="M0,136.992559 C0,134.78753 1.26064415,131.73847 2.82665156,130.171363 L9.16492558,123.828637 C10.7260421,122.266424 13.142149,122.376553 14.5615343,124.074715 L19.4516493,129.925285 C20.8709975,131.623403 23.556775,132.075649 25.4509404,130.93514 L28.5571163,129.06486 C30.4510851,127.924469 33.5254364,127.924351 35.410336,129.056465 L38.5521884,130.943535 C40.4431483,132.079289 43.5814724,133.803337 45.5552163,134.790992 L48.3889976,136.209008 C50.3657032,137.198146 53.563327,137.207735 55.5458254,136.223109 L58.4577147,134.776891 C60.4336159,133.795541 63.2974393,131.733493 64.8642354,130.16115 L69.171287,125.83885 C70.7336095,124.270996 72.500471,121.290634 73.1224143,119.165859 L80.8299782,92.8341407 C81.4498031,90.7166033 82.9926589,87.5544846 84.2893016,85.7529297 L89.6915334,78.2470703 C90.98224,76.4537629 93.0686469,76.458626 94.3564859,78.2647092 L99.6834311,85.7352908 C100.969107,87.5383399 103.272603,87.7334931 104.83842,86.16115 L109.142781,81.83885 C110.704127,80.2709964 112.681259,80.635665 113.566001,82.6698506 L120.377237,98.3301494 C121.258767,100.356952 122.843563,103.565894 123.913867,105.491924 L130.035596,116.508076 C131.107292,118.436612 132.969127,121.493096 134.19017,123.328986 L139.738419,131.671014 C140.96123,133.509562 142.699746,133.364398 143.612197,131.367147 L150.343614,116.632853 C151.260231,114.626483 152.801261,114.602876 153.783348,116.575599 L160.179909,129.424401 C161.163004,131.39915 163.225757,131.733493 164.783875,130.174499 L169.130431,125.825501 C170.690036,124.26502 173.281961,121.804869 174.926911,120.324071 L178.979461,116.675929 C180.621164,115.198054 183.490373,114.924351 185.38846,116.06486 L188.501066,117.93514 C190.398956,119.075531 193.4615,120.933359 195.352456,122.091456 L201.585044,125.908544 C203.471072,127.063623 205,129.800691 205,132.002182 L205,192.993865 C205,195.758677 202.767508,198 199.997581,198 L192.013306,198 L181.942505,198 L171.976074,198 L161.983032,198 L152.011597,198 L141.975586,198 L131.999023,198 L121.943481,198 L112.014648,198 L101.96228,198 L92.019043,198 L82.0025635,198 L72.0001221,198 L62.0014648,198 L52.0141602,198 L41.9312744,198 L32.0056152,198 L22.0216064,198 L12.0350342,198 L4.99938313,198 C2.23830007,198 0,195.762553 0,193.007488 L0,136.992559 Z" id="path-6"></path>
        <linearGradient x1="50%" y1="0%" x2="50%" y2="98.1425383%" id="linearGradient-7">
            <stop stop-color="#29997A" stop-opacity="0.2" offset="0%"></stop>
            <stop stop-color="#29997A" stop-opacity="0" offset="100%"></stop>
        </linearGradient>
        <path d="M0,174.998471 C0,172.790176 1.03277386,169.535876 2.30499866,167.732292 L9.68657849,157.267708 C10.9595941,155.463003 13.3234876,155.195131 14.9737604,156.675929 L19.0394232,160.324071 C20.6864375,161.801946 23.556775,162.075649 25.4509404,160.93514 L28.5571163,159.06486 C30.4510851,157.924469 33.5254364,157.924351 35.410336,159.056465 L38.5521884,160.943535 C40.4431483,162.079289 43.5814724,163.803337 45.5552163,164.790992 L48.3889976,166.209008 C50.3657032,167.198146 53.563327,167.207735 55.5458254,166.223109 L58.4577147,164.776891 C60.4336159,163.795541 63.2974393,161.733493 64.8642354,160.16115 L69.171287,155.83885 C70.7336095,154.270996 72.9453683,154.519666 74.1107168,156.393188 L79.8416758,165.606812 C81.0073251,167.480818 82.232285,167.221477 82.5749836,165.044812 L91.4058513,108.955188 C91.7497663,106.770798 92.7147219,106.649617 93.5664975,108.697403 L100.473419,125.302597 C101.322796,127.344616 102.809464,127.397124 103.791732,125.424401 L110.189469,112.575599 C111.172746,110.60085 112.302684,110.763405 112.713567,112.940314 L121.22967,158.059686 C121.640414,160.235861 123.120824,160.623447 124.53634,158.925285 L129.413123,153.074715 C130.828602,151.376597 132.969127,151.493096 134.19017,153.328986 L139.738419,161.671014 C140.96123,163.509562 142.699746,163.364398 143.612197,161.367147 L150.343614,146.632853 C151.260231,144.626483 152.801261,144.602876 153.783348,146.575599 L160.179909,159.424401 C161.163004,161.39915 163.225757,161.733493 164.783875,160.174499 L169.130431,155.825501 C170.690036,154.26502 173.281961,151.804869 174.926911,150.324071 L178.979461,146.675929 C180.621164,145.198054 183.039656,145.415975 184.388361,147.171843 L189.501165,153.828157 C190.846716,155.579918 192.976382,158.464124 194.248999,160.257656 L201.688501,170.742344 C202.965107,172.541498 204,175.784293 204,177.990053 L204,192.998027 C204,195.760541 201.759456,198 199.00336,198 L192.013306,198 L181.942505,198 L171.976074,198 L161.983032,198 L152.011597,198 L141.975586,198 L131.999023,198 L121.943481,198 L112.014648,198 L101.96228,198 L92.019043,198 L82.0025635,198 L72.0001221,198 L62.0014648,198 L52.0141602,198 L41.9312744,198 L32.0056152,198 L22.0216064,198 L12.0350342,198 L4.99938313,198 C2.23830007,198 0,195.767506 0,193.00056 L0,174.998471 Z" id="path-8"></path>
    </defs>
    <g id="General" stroke="none" stroke-width="1" fill="none" fill-rule="evenodd">
        <g id="Group-2">
            <g id="Group-4">
                <mask id="mask-2" fill="white">
                    <use xlink:href="#path-1"></use>
                </mask>
                <use id="Mask" fill="#333333" xlink:href="#path-1"></use>
                <g mask="url(#mask-2)" id="Rectangle-20">
                    <g transform="translate(-2.000000, 104.000000)">
                        <g>
                            <use fill="url(#linearGradient-3)" fill-rule="evenodd" xlink:href="#path-4"></use>
                            <path stroke="#BEAB6F" stroke-width="1.5" d="M0.75,93.0086383 L0.75,192.997342 C0.75,195.346527 2.65239236,197.25 4.99938313,197.25 L199.997581,197.25 C202.350446,197.25 204.25,195.346224 204.25,192.991424 L204.25,87.9904763 C204.25,86.050502 202.855765,83.5662637 201.193338,82.5481265 L194.96075,78.7310392 C193.073299,77.5750885 190.012576,75.7183449 188.114782,74.5780124 L185.002176,72.7077316 C183.386559,71.7369513 180.877759,71.9761913 179.481249,73.233342 L175.428699,76.8814834 C173.79467,78.3524501 171.212258,80.803463 169.66091,82.3556823 L165.314354,86.70468 C163.393488,88.626626 160.719765,88.191705 159.508507,85.7586467 L153.111947,72.9098451 C152.134787,70.9470196 150.469354,67.7912414 149.398655,65.8737192 L143.247492,54.8575669 C142.479322,53.4818482 141.750822,53.5289716 141.166297,54.9937346 L134.155459,72.5622194 C133.071575,75.2783299 130.953058,75.1800303 130.128574,72.3775364 L122.381871,46.0458177 C121.758085,43.9255131 120.735469,40.5016135 120.093437,38.3836589 L112.414306,13.0514932 C111.805765,11.0440171 110.089055,8.1742405 108.611349,6.69037609 L104.306988,2.36807614 C103.070651,1.12658579 101.311688,1.27304147 100.294086,2.70014059 L94.9671409,10.1707222 C93.6883784,11.9640763 91.7022548,14.9255429 90.5324358,16.7830814 L84.7176691,26.0162646 C83.5751273,27.83049 82.0801282,30.9965565 81.4036764,33.0356694 L73.9724209,55.436628 C73.2646426,57.5701724 71.890009,60.9028083 70.8899229,62.9100618 L64.4881863,75.7588634 C63.3204349,78.1026346 60.4700147,79.0599444 58.1241008,77.8948242 L55.2122115,76.4486069 C53.5704931,75.633232 51.391781,76.2180496 50.3747665,77.7447827 L44.8178275,86.0868104 C43.3723571,88.2567377 40.3997177,88.9280871 38.166022,87.5864776 L35.0241696,85.6994081 C33.3751645,84.7089774 30.5981848,84.7113586 28.9439877,85.7073785 L25.8378118,87.5776592 C23.626842,88.9089213 20.5326054,88.3880171 18.8761922,86.4062723 L13.9860771,80.555703 C12.8490708,79.1953804 10.9447873,79.1085579 9.69544182,80.3587809 L3.3571678,86.7015069 C1.9335315,88.1261431 0.75,90.9909489 0.75,93.0086383 Z"></path>
                        </g>
                        <g>
                            <use fill="url(#linearGradient-5)" fill-rule="evenodd" xlink:href="#path-6"></use>
                            <path stroke="#FF5559" stroke-width="1.5" d="M0.75,136.992559 L0.75,193.007488 C0.75,195.348928 2.65310322,197.25 4.99938313,197.25 L12.0350342,197.25 L199.997581,197.25 C202.350528,197.25 204.25,195.347233 204.25,192.993865 L204.25,132.002182 C204.25,130.058575 202.854108,127.565249 201.193338,126.548127 L194.96075,122.731039 C193.073299,121.575088 190.012576,119.718345 188.114782,118.578012 L185.002176,116.707732 C183.386559,115.736951 180.877759,115.976191 179.481249,117.233342 L175.428699,120.881483 C173.79467,122.35245 171.212258,124.803463 169.66091,126.355682 L165.314354,130.70468 C163.393488,132.626626 160.719765,132.191705 159.508507,129.758647 L153.111947,116.909845 C152.41056,115.500966 151.679863,115.512828 151.025794,116.944509 L144.294377,131.678804 C143.136271,134.213766 140.660597,134.41184 139.113929,132.08636 L133.56568,123.744332 C132.332994,121.890936 130.460864,118.817382 129.380019,116.872383 L123.258291,105.856231 C122.175726,103.908137 120.580274,100.677401 119.689473,98.629283 L112.878237,82.9689842 C112.206099,81.4236141 110.864368,81.1729611 109.674213,82.3680761 L105.369852,86.6903761 C103.477643,88.5904708 100.629071,88.3532915 99.0727761,86.1707222 L93.7458309,78.7001406 C92.756753,77.313044 91.2913596,77.3081599 90.3002605,78.6851927 L84.8980287,86.1910521 C83.653081,87.9207821 82.1467173,91.0054738 81.549776,93.0448329 L73.8422121,119.376551 C73.1857399,121.619289 71.3551121,124.709833 69.7025534,126.368242 L65.3955018,130.690542 C63.7725931,132.319196 60.8424252,134.42991 58.7913285,135.448607 L55.8794392,136.894824 C53.6881523,137.983148 50.2427215,137.975265 48.0533744,136.879722 L45.219593,135.461706 C43.2276401,134.464939 40.0725003,132.731553 38.166022,131.586478 L35.0241696,129.699408 C33.3751645,128.708977 30.5981848,128.711359 28.9439877,129.707379 L25.8378118,131.577659 C23.626842,132.908921 20.5326054,132.388017 18.8761922,130.406272 L13.9860771,124.555703 C12.8490708,123.19538 10.9447873,123.108558 9.69544182,124.358781 L3.3571678,130.701507 C1.93337259,132.126302 0.75,134.983984 0.75,136.992559 Z"></path>
                        </g>
                        <g>
                            <use fill="url(#linearGradient-7)" fill-rule="evenodd" xlink:href="#path-8"></use>
                            <path stroke="#01C864" stroke-width="1.5" d="M0.75,174.998471 L0.75,193.00056 C0.75,195.351145 2.6503647,197.25 4.99938313,197.25 L12.0350342,197.25 L199.00336,197.25 C201.346343,197.25 203.25,195.345226 203.25,192.998027 L203.25,177.990053 C203.25,175.940598 202.263907,172.849326 201.076837,171.176356 L193.637334,160.691668 C192.36882,158.903918 190.244708,156.027385 188.906376,154.285023 L183.793572,147.628708 C182.7124,146.221139 180.799452,146.046684 179.481249,147.233342 L175.428699,150.881483 C173.79467,152.35245 171.212258,154.803463 169.66091,156.355682 L165.314354,160.70468 C163.393488,162.626626 160.719765,162.191705 159.508507,159.758647 L153.111947,146.909845 C152.41056,145.500966 151.679863,145.512828 151.025794,146.944509 L144.294377,161.678804 C143.136271,164.213766 140.660597,164.41184 139.113929,162.08636 L133.56568,153.744332 C132.621916,152.325344 131.082914,152.242856 129.989226,153.55493 L125.112442,159.405499 C123.290457,161.591295 121.020862,160.997149 120.492683,158.198789 L111.97658,113.079418 C111.698545,111.606355 111.522555,111.58096 110.860846,112.909894 L104.463109,125.758696 C103.193461,128.308575 100.876499,128.224521 99.7809356,125.590635 L92.8740136,108.985442 C92.3140404,107.639189 92.3734171,107.631989 92.1467251,109.071833 L83.3158575,165.161456 C82.8650139,168.025008 80.7371982,168.46653 79.2048225,166.00294 L73.4738635,156.789317 C72.5641377,155.326757 70.9238971,155.142574 69.7025534,156.368242 L65.3955018,160.690542 C63.7725931,162.319196 60.8424252,164.42991 58.7913285,165.448607 L55.8794392,166.894824 C53.6881523,167.983148 50.2427215,167.975265 48.0533744,166.879722 L45.219593,165.461706 C43.2276401,164.464939 40.0725003,162.731553 38.166022,161.586478 L35.0241696,159.699408 C33.3751645,158.708977 30.5981848,158.711359 28.9439877,159.707379 L25.8378118,161.577659 C23.6613135,162.888165 20.4307899,162.580223 18.5385312,160.882289 L14.4728684,157.234147 C13.1576625,156.054006 11.3144379,156.261105 10.2994474,157.700018 L2.91786758,168.164601 C1.73459155,169.842086 0.75,172.945466 0.75,174.998471 Z"></path>
                        </g>
                    </g>
                </g>
            </g>
            <path d="M8.2421875,71.9365234 L8.2421875,71.9414062 L9.09179688,71.9414062 L9.09179688,71.9365234 C9.09179688,71.1064453 9.6484375,70.5546875 10.4736328,70.5546875 C11.25,70.5546875 11.8505859,71.0966797 11.8505859,71.7998047 C11.8505859,72.3662109 11.6308594,72.7470703 10.7226562,73.7333984 L8.28613281,76.3945312 L8.28613281,77 L12.8466797,77 L12.8466797,76.2089844 L9.54589844,76.2089844 L9.54589844,76.1308594 L11.2402344,74.3095703 C12.3974609,73.0693359 12.7294922,72.4980469 12.7294922,71.765625 C12.7294922,70.6474609 11.7626953,69.7880859 10.4980469,69.7880859 C9.18945312,69.7880859 8.2421875,70.6865234 8.2421875,71.9365234 Z M16.7675781,77.1660156 C18.2275391,77.1660156 19.2285156,76.1894531 19.2285156,74.7587891 C19.2285156,73.3720703 18.2910156,72.4003906 16.953125,72.4003906 C16.3037109,72.4003906 15.8056641,72.6005859 15.4638672,73.0009766 L15.3857422,73.0009766 L15.5859375,70.7402344 L18.828125,70.7402344 L18.828125,69.9541016 L14.8974609,69.9541016 L14.5117188,73.9482422 L15.3369141,73.9482422 C15.625,73.4453125 16.1523438,73.1572266 16.7919922,73.1572266 C17.7148438,73.1572266 18.3496094,73.8164062 18.3496094,74.7832031 C18.3496094,75.75 17.7197266,76.3945312 16.7773438,76.3945312 C15.9472656,76.3945312 15.3417969,75.8867188 15.2636719,75.125 L14.3994141,75.125 C14.4775391,76.3408203 15.4345703,77.1660156 16.7675781,77.1660156 Z M25.9326172,76.4970703 C26.3623047,76.4970703 26.6503906,76.0673828 26.6503906,75.4228516 C26.6503906,74.7636719 26.3720703,74.3535156 25.9326172,74.3535156 C25.4931641,74.3535156 25.2099609,74.7734375 25.2099609,75.4228516 C25.2099609,76.0722656 25.4980469,76.4970703 25.9326172,76.4970703 Z M25.9326172,77.1220703 C25.0537109,77.1220703 24.4287109,76.4189453 24.4287109,75.4228516 C24.4287109,74.4316406 25.0537109,73.7285156 25.9326172,73.7285156 C26.8115234,73.7285156 27.4316406,74.4267578 27.4316406,75.4228516 C27.4316406,76.4189453 26.8115234,77.1220703 25.9326172,77.1220703 Z M21.8554688,73.2255859 C20.9765625,73.2255859 20.3515625,72.5224609 20.3515625,71.5263672 C20.3515625,70.5351562 20.9765625,69.8320312 21.8554688,69.8320312 C22.734375,69.8320312 23.3544922,70.5302734 23.3544922,71.5263672 C23.3544922,72.5224609 22.734375,73.2255859 21.8554688,73.2255859 Z M21.7773438,77 L20.8789062,77 L23.5693359,73.328125 L26.0400391,69.9541016 L26.9287109,69.9541016 L24.1943359,73.6943359 L21.7773438,77 Z M21.8554688,72.6005859 C22.2851562,72.6005859 22.5732422,72.1708984 22.5732422,71.5263672 C22.5732422,70.8671875 22.2949219,70.4570312 21.8554688,70.4570312 C21.4160156,70.4570312 21.1328125,70.8769531 21.1328125,71.5263672 C21.1328125,72.1757812 21.4208984,72.6005859 21.8554688,72.6005859 Z M8.2421875,111.936523 L8.2421875,111.941406 L9.09179688,111.941406 L9.09179688,111.936523 C9.09179688,111.106445 9.6484375,110.554688 10.4736328,110.554688 C11.25,110.554688 11.8505859,111.09668 11.8505859,111.799805 C11.8505859,112.366211 11.6308594,112.74707 10.7226562,113.733398 L8.28613281,116.394531 L8.28613281,117 L12.8466797,117 L12.8466797,116.208984 L9.54589844,116.208984 L9.54589844,116.130859 L11.2402344,114.30957 C12.3974609,113.069336 12.7294922,112.498047 12.7294922,111.765625 C12.7294922,110.647461 11.7626953,109.788086 10.4980469,109.788086 C9.18945312,109.788086 8.2421875,110.686523 8.2421875,111.936523 Z M16.8115234,117.166016 C15.2246094,117.166016 14.3115234,115.818359 14.3115234,113.474609 C14.3115234,111.150391 15.234375,109.788086 16.8115234,109.788086 C18.3789062,109.788086 19.3017578,111.155273 19.3017578,113.489258 C19.3017578,115.828125 18.3935547,117.166016 16.8115234,117.166016 Z M16.8115234,116.399414 C17.8515625,116.399414 18.4179688,115.364258 18.4179688,113.474609 C18.4179688,111.604492 17.8417969,110.55957 16.8115234,110.55957 C15.78125,110.55957 15.1953125,111.614258 15.1953125,113.474609 C15.1953125,115.359375 15.7714844,116.399414 16.8115234,116.399414 Z M9.97070312,157 L10.8496094,157 L10.8496094,149.954102 L9.97558594,149.954102 L8.10058594,151.301758 L8.10058594,152.229492 L9.89257812,150.930664 L9.97070312,150.930664 L9.97070312,157 Z M15.390625,157.166016 C16.8505859,157.166016 17.8515625,156.189453 17.8515625,154.758789 C17.8515625,153.37207 16.9140625,152.400391 15.5761719,152.400391 C14.9267578,152.400391 14.4287109,152.600586 14.0869141,153.000977 L14.0087891,153.000977 L14.2089844,150.740234 L17.4511719,150.740234 L17.4511719,149.954102 L13.5205078,149.954102 L13.1347656,153.948242 L13.9599609,153.948242 C14.2480469,153.445312 14.7753906,153.157227 15.4150391,153.157227 C16.3378906,153.157227 16.9726562,153.816406 16.9726562,154.783203 C16.9726562,155.75 16.3427734,156.394531 15.4003906,156.394531 C14.5703125,156.394531 13.9648438,155.886719 13.8867188,155.125 L13.0224609,155.125 C13.1005859,156.34082 14.0576172,157.166016 15.390625,157.166016 Z M9.97070312,197 L10.8496094,197 L10.8496094,189.954102 L9.97558594,189.954102 L8.10058594,191.301758 L8.10058594,192.229492 L9.89257812,190.930664 L9.97070312,190.930664 L9.97070312,197 Z M15.4345703,197.166016 C13.8476562,197.166016 12.9345703,195.818359 12.9345703,193.474609 C12.9345703,191.150391 13.8574219,189.788086 15.4345703,189.788086 C17.0019531,189.788086 17.9248047,191.155273 17.9248047,193.489258 C17.9248047,195.828125 17.0166016,197.166016 15.4345703,197.166016 Z M15.4345703,196.399414 C16.4746094,196.399414 17.0410156,195.364258 17.0410156,193.474609 C17.0410156,191.604492 16.4648438,190.55957 15.4345703,190.55957 C14.4042969,190.55957 13.8183594,191.614258 13.8183594,193.474609 C13.8183594,195.359375 14.3945312,196.399414 15.4345703,196.399414 Z M10.6103516,237.166016 C12.0703125,237.166016 13.0712891,236.189453 13.0712891,234.758789 C13.0712891,233.37207 12.1337891,232.400391 10.7958984,232.400391 C10.1464844,232.400391 9.6484375,232.600586 9.30664062,233.000977 L9.22851562,233.000977 L9.42871094,230.740234 L12.6708984,230.740234 L12.6708984,229.954102 L8.74023438,229.954102 L8.35449219,233.948242 L9.1796875,233.948242 C9.46777344,233.445312 9.99511719,233.157227 10.6347656,233.157227 C11.5576172,233.157227 12.1923828,233.816406 12.1923828,234.783203 C12.1923828,235.75 11.5625,236.394531 10.6201172,236.394531 C9.79003906,236.394531 9.18457031,235.886719 9.10644531,235.125 L8.2421875,235.125 C8.3203125,236.34082 9.27734375,237.166016 10.6103516,237.166016 Z M10.6542969,277.166016 C9.06738281,277.166016 8.15429688,275.818359 8.15429688,273.474609 C8.15429688,271.150391 9.07714844,269.788086 10.6542969,269.788086 C12.2216797,269.788086 13.1445312,271.155273 13.1445312,273.489258 C13.1445312,275.828125 12.2363281,277.166016 10.6542969,277.166016 Z M10.6542969,276.399414 C11.6943359,276.399414 12.2607422,275.364258 12.2607422,273.474609 C12.2607422,271.604492 11.6845703,270.55957 10.6542969,270.55957 C9.62402344,270.55957 9.03808594,271.614258 9.03808594,273.474609 C9.03808594,275.359375 9.61425781,276.399414 10.6542969,276.399414 Z" id="25%-20-15-10-5-0" fill="#FFFFFF" opacity="0.400000006"></path>
            <path d="M61.8632812,29.265625 C64.2617188,29.265625 66.0429688,27.9296875 66.4179688,25.859375 L64.9882812,25.859375 C64.6289062,27.1640625 63.4335938,27.96875 61.8632812,27.96875 C59.6914062,27.96875 58.3320312,26.1953125 58.3320312,23.3671875 C58.3320312,20.5390625 59.6914062,18.7578125 61.8554688,18.7578125 C63.4101562,18.7578125 64.6132812,19.671875 64.9882812,21.125 L66.4179688,21.125 C66.0820312,18.953125 64.2304688,17.4609375 61.8554688,17.4609375 C58.7929688,17.4609375 56.8867188,19.7265625 56.8867188,23.3671875 C56.8867188,27 58.8007812,29.265625 61.8632812,29.265625 Z M68.4648438,17.7265625 L72.7226562,17.7265625 C74.8554688,17.7265625 76.3320312,19.2265625 76.3320312,21.375 C76.3320312,23.484375 74.8242188,24.9765625 72.7070312,24.9765625 L69.8710938,24.9765625 L69.8710938,29 L68.4648438,29 L68.4648438,17.7265625 Z M69.8710938,18.9765625 L69.8710938,23.7265625 L72.3554688,23.7265625 C73.9570312,23.7265625 74.8867188,22.8671875 74.8867188,21.375 C74.8867188,19.828125 73.9882812,18.9765625 72.3554688,18.9765625 L69.8710938,18.9765625 Z M79.7617188,17.7265625 L78.3554688,17.7265625 L78.3554688,25.125 C78.3554688,27.53125 80.0351562,29.265625 82.8320312,29.265625 C85.6289062,29.265625 87.3085938,27.53125 87.3085938,25.125 L87.3085938,17.7265625 L85.9023438,17.7265625 L85.9023438,25.03125 C85.9023438,26.734375 84.7851562,27.96875 82.8320312,27.96875 C80.8789062,27.96875 79.7617188,26.734375 79.7617188,25.03125 L79.7617188,17.7265625 Z M95.5585938,17.7265625 L94.1523438,17.7265625 L94.1523438,25.125 C94.1523438,27.53125 95.8320312,29.265625 98.6289062,29.265625 C101.425781,29.265625 103.105469,27.53125 103.105469,25.125 L103.105469,17.7265625 L101.699219,17.7265625 L101.699219,25.03125 C101.699219,26.734375 100.582031,27.96875 98.6289062,27.96875 C96.6757812,27.96875 95.5585938,26.734375 95.5585938,25.03125 L95.5585938,17.7265625 Z M105.339844,22.8828125 C105.339844,24.1015625 106.058594,24.78125 107.636719,25.1640625 L109.082031,25.515625 C109.980469,25.734375 110.417969,26.125 110.417969,26.703125 C110.417969,27.4765625 109.605469,28.015625 108.472656,28.015625 C107.394531,28.015625 106.722656,27.5625 106.496094,26.8515625 L105.113281,26.8515625 C105.261719,28.25 106.550781,29.1484375 108.425781,29.1484375 C110.339844,29.1484375 111.800781,28.109375 111.800781,26.6015625 C111.800781,25.390625 111.035156,24.703125 109.449219,24.3203125 L108.152344,24.0078125 C107.160156,23.765625 106.691406,23.40625 106.691406,22.828125 C106.691406,22.078125 107.472656,21.5703125 108.472656,21.5703125 C109.488281,21.5703125 110.144531,22.015625 110.324219,22.6875 L111.652344,22.6875 C111.472656,21.3046875 110.246094,20.4296875 108.480469,20.4296875 C106.691406,20.4296875 105.339844,21.484375 105.339844,22.8828125 Z M116.191406,27.96875 C117.574219,27.96875 118.597656,27.0625 118.597656,25.859375 L118.597656,25.0859375 L116.332031,25.234375 C115.050781,25.3203125 114.488281,25.765625 114.488281,26.609375 C114.488281,27.46875 115.214844,27.96875 116.191406,27.96875 Z M115.941406,29.1484375 C114.308594,29.1484375 113.097656,28.1796875 113.097656,26.640625 C113.097656,25.1328125 114.207031,24.265625 116.167969,24.1484375 L118.597656,24 L118.597656,23.234375 C118.597656,22.1953125 117.949219,21.625 116.691406,21.625 C115.683594,21.625 114.980469,22.0078125 114.792969,22.671875 L113.433594,22.671875 C113.613281,21.3203125 114.941406,20.4296875 116.738281,20.4296875 C118.792969,20.4296875 119.941406,21.484375 119.941406,23.234375 L119.941406,29 L118.660156,29 L118.660156,27.7578125 L118.535156,27.7578125 C117.988281,28.65625 117.066406,29.1484375 115.941406,29.1484375 Z M128.019531,24.6640625 C128.019531,22.828125 127.074219,21.640625 125.519531,21.640625 C123.957031,21.640625 123.082031,22.828125 123.082031,24.6640625 C123.082031,26.5 123.957031,27.6875 125.519531,27.6875 C127.082031,27.6875 128.019531,26.5 128.019531,24.6640625 Z M125.582031,32.234375 C123.550781,32.234375 122.253906,31.3203125 122.050781,29.9296875 L123.472656,29.9296875 C123.621094,30.6171875 124.371094,31.0625 125.582031,31.0625 C127.089844,31.0625 127.988281,30.3203125 127.988281,29.078125 L127.988281,27.421875 L127.863281,27.421875 C127.332031,28.3515625 126.378906,28.875 125.222656,28.875 C123.042969,28.875 121.691406,27.1875 121.691406,24.6640625 C121.691406,22.140625 123.058594,20.4296875 125.222656,20.4296875 C126.402344,20.4296875 127.441406,21.0078125 127.925781,21.9140625 L128.050781,21.9140625 L128.050781,20.578125 L129.332031,20.578125 L129.332031,29.1484375 C129.332031,31.03125 127.878906,32.234375 125.582031,32.234375 Z M134.910156,21.6171875 C133.566406,21.6171875 132.628906,22.6015625 132.527344,24.09375 L137.167969,24.09375 C137.136719,22.6015625 136.246094,21.6171875 134.910156,21.6171875 Z M137.128906,26.8203125 L138.472656,26.8203125 C138.066406,28.265625 136.769531,29.1484375 134.925781,29.1484375 C132.589844,29.1484375 131.128906,27.4609375 131.128906,24.796875 C131.128906,22.1484375 132.613281,20.4296875 134.925781,20.4296875 C137.199219,20.4296875 138.582031,22.046875 138.582031,24.6640625 L138.582031,25.1796875 L132.527344,25.1796875 L132.527344,25.2421875 C132.597656,26.90625 133.527344,27.9609375 134.957031,27.9609375 C136.042969,27.9609375 136.777344,27.5625 137.128906,26.8203125 Z" id="CPU-Usage" fill="#FFFFFF"></path>
            <rect id="Rectangle-21" fill="#FFFFFF" opacity="0.100000001" x="0" y="45" width="200" height="1"></rect>
        </g>
    </g>
</svg>
