<svg width="200px" height="300px" viewBox="0 0 200 300" version="1.1" xmlns="http://www.w3.org/2000/svg" xmlns:xlink="http://www.w3.org/1999/xlink">
    <desc>Created with Sketch.</desc>
    <defs>
        <rect id="path-1" x="0" y="0" width="200" height="300" rx="6"></rect>
        <linearGradient x1="50%" y1="0%" x2="50%" y2="100%" id="linearGradient-3">
            <stop stop-color="#F1C538" stop-opacity="0.3" offset="0%"></stop>
            <stop stop-color="#F1C538" stop-opacity="0" offset="100%"></stop>
        </linearGradient>
        <path d="M0,93.0086383 C0,90.7947285 1.26064415,87.7384704 2.82665156,86.171363 L9.16492558,79.828637 C10.7260421,78.2664239 13.142149,78.3765526 14.5615343,80.0747154 L19.4516493,85.9252846 C20.8709975,87.623403 23.556775,88.0756492 25.4509404,86.9351404 L28.5571163,85.0648596 C30.4510851,83.9244691 33.5254364,83.9243508 35.410336,85.0564653 L38.5521884,86.9435347 C40.4431483,88.0792891 42.970682,87.5069036 44.1936374,85.6710138 L49.7505765,77.3289862 C50.9753028,75.4904379 53.563327,74.7922649 55.5458254,75.7768914 L58.4577147,77.2231086 C60.4336159,78.2044586 62.834011,77.3971241 63.8168929,75.4244008 L70.2186295,62.5755992 C71.2025207,60.6008503 72.5637076,57.3011138 73.2605685,55.2004793 L80.691824,32.7995207 C81.3879494,30.7011034 82.909308,27.4803341 84.0830341,25.6165916 L89.8978008,16.3834084 C91.0745891,14.5148036 93.0686469,11.541374 94.3564859,9.73529079 L99.6834311,2.26470921 C100.969107,0.4616601 103.272603,0.26650691 104.83842,1.83885002 L109.142781,6.16114998 C110.704127,7.72900355 112.486617,10.7047335 113.132053,12.8339171 L120.811184,38.1660829 C121.453052,40.2834968 122.476278,43.709366 123.10138,45.8341407 L130.848083,72.1658593 C131.471055,74.2833967 132.638383,74.3403191 133.458876,72.2842424 L140.469713,54.7157576 C141.288642,52.6636013 142.826873,52.5658937 143.902324,54.4919239 L150.053487,65.5080761 C151.130337,67.4366124 152.801261,70.6028759 153.783348,72.5755992 L160.179909,85.4244008 C161.163004,87.3991497 163.225757,87.7334931 164.783875,86.1744989 L169.130431,81.8255011 C170.690036,80.2650199 173.281961,77.8048695 174.926911,76.3240707 L178.979461,72.6759293 C180.621164,71.1980544 183.490373,70.9243508 185.38846,72.0648596 L188.501066,73.9351404 C190.398956,75.0755309 193.4615,76.9333586 195.352456,78.0914563 L201.585044,81.9085437 C203.471072,83.0636231 205,85.7906678 205,87.9904763 L205,192.991424 C205,195.757584 202.767508,198 199.997581,198 L192.013306,198 L181.942505,198 L171.976074,198 L161.983032,198 L152.011597,198 L141.975586,198 L131.999023,198 L121.943481,198 L112.014648,198 L101.96228,198 L92.019043,198 L82.0025635,198 L72.0001221,198 L62.0014648,198 L52.0141602,198 L41.9312744,198 L32.0056152,198 L22.0216064,198 L12.0350342,198 L4.99938313,198 C2.23830007,198 0,195.760862 0,192.997342 L0,93.0086383 Z" id="path-4"></path>
        <linearGradient x1="50%" y1="0%" x2="50%" y2="100%" id="linearGradient-5">
            <stop stop-color="#FF5559" stop-opacity="0.2" offset="0%"></stop>
            <stop stop-color="#FF5559" stop-opacity="0" offset="100%"></stop>
        </linearGradient>
        <path d="M0,122.998956 C0,120.790393 1.26064415,117.73847 2.82665156,116.171363 L9.16492558,109.828637 C10.7260421,108.266424 13.3862097,105.887634 15.1238837,104.501657 L18.8892999,101.498343 C20.619225,100.118546 23.0598193,100.458626 24.3453434,102.264709 L29.6627133,109.735291 C30.9460777,111.53834 33.6472473,112.334991 35.7062175,111.510548 L38.2563069,110.489452 C40.3106777,109.666851 43.5814724,108.196663 45.5552163,107.209008 L48.3889976,105.790992 C50.3657032,104.801854 53.4838552,104.961463 55.3859333,106.07847 C55.3859333,106.07847 57.8821713,107.96335 62.0354004,109 C66.1886295,110.03665 68.0318048,109.42025 68.0318048,109.42025 C70.2234459,109.188152 73.2605685,107.733493 74.8253878,106.16115 L79.1270048,101.83885 C80.687356,100.270996 83.6161655,99.6605186 85.6756821,100.478088 L88.3051529,101.521912 C90.3615363,102.338238 93.6994587,102.33049 95.7457863,101.510548 L98.2941307,100.489452 C100.347096,99.6668505 103.406524,100.120789 105.13496,101.5093 L108.846241,104.4907 C110.571362,105.876548 113.57709,106.196663 115.553101,105.209008 L118.390136,103.790992 C120.369112,102.801854 123.636357,102.665009 125.683805,103.483768 L128.265658,104.516232 C130.314864,105.335694 132.969127,104.506904 134.19017,102.671014 L139.738419,94.3289862 C140.96123,92.4904379 143.350033,92.1123657 145.07755,93.4873972 L148.87826,96.5126028 C150.60417,97.8863543 153.794847,99 155.995683,99 L157.967574,99 C160.172509,99 163.225757,100.266507 164.783875,101.825501 L169.130431,106.174499 C170.690036,107.73498 173.281961,107.804869 174.926911,106.324071 L178.979461,102.675929 C180.621164,101.198054 183.490373,100.924351 185.38846,102.06486 L188.501066,103.93514 C190.398956,105.075531 193.428698,106.988981 195.265562,108.207212 L200.671938,111.792788 C202.509976,113.011797 204,115.793321 204,117.994984 L204,192.996975 C204,195.760069 201.759456,198 199.00336,198 L192.013306,198 L181.942505,198 L171.976074,198 L161.983032,198 L152.011597,198 L141.975586,198 L131.999023,198 L121.943481,198 L112.014648,198 L101.96228,198 L92.019043,198 L82.0025635,198 L72.0001221,198 L62.0014648,198 L52.0141602,198 L41.9312744,198 L32.0056152,198 L22.0216064,198 L12.0350342,198 L4.99938313,198 C2.23830007,198 0,195.762939 0,192.998264 L0,122.998956 Z" id="path-6"></path>
        <linearGradient x1="50%" y1="0%" x2="50%" y2="98.1425383%" id="linearGradient-7">
            <stop stop-color="#29997A" stop-opacity="0.2" offset="0%"></stop>
            <stop stop-color="#29997A" stop-opacity="0" offset="100%"></stop>
        </linearGradient>
        <path d="M0,156.997893 C0,154.789917 1.26064415,151.73847 2.82665156,150.171363 L9.16492558,143.828637 C10.7260421,142.266424 13.142149,142.376553 14.5615343,144.074715 L19.4516493,149.925285 C20.8709975,151.623403 23.556775,152.075649 25.4509404,150.93514 L28.5571163,149.06486 C30.4510851,147.924469 33.5254364,147.924351 35.410336,149.056465 L38.5521884,150.943535 C40.4431483,152.079289 43.5814724,153.803337 45.5552163,154.790992 L48.3889976,156.209008 C50.3657032,157.198146 53.563327,157.207735 55.5458254,156.223109 L58.4577147,154.776891 C60.4336159,153.795541 63.2974393,151.733493 64.8642354,150.16115 L69.171287,145.83885 C70.7336095,144.270996 73.5333348,143.924351 75.425087,145.06486 L78.5273056,146.93514 C80.4188615,148.075531 82.9926589,147.554485 84.2893016,145.75293 L89.6915334,138.24707 C90.98224,136.453763 93.0686469,136.458626 94.3564859,138.264709 L99.6834311,145.735291 C100.969107,147.53834 103.272603,147.733493 104.83842,146.16115 L109.142781,141.83885 C110.704127,140.270996 112.681259,140.635665 113.566001,142.669851 L120.377237,158.330149 C121.258767,160.356952 122.717044,160.364398 123.625129,158.367147 L130.324334,143.632853 C131.236565,141.626483 132.969127,141.493096 134.19017,143.328986 L139.738419,151.671014 C140.96123,153.509562 142.699746,153.364398 143.612197,151.367147 L150.343614,136.632853 C151.260231,134.626483 152.801261,134.602876 153.783348,136.575599 L160.179909,149.424401 C161.163004,151.39915 163.225757,151.733493 164.783875,150.174499 L169.130431,145.825501 C170.690036,144.26502 173.281961,141.804869 174.926911,140.324071 L178.979461,136.675929 C180.621164,135.198054 183.490373,134.924351 185.38846,136.06486 L188.501066,137.93514 C190.398956,139.075531 193.4615,140.933359 195.352456,142.091456 L201.585044,145.908544 C203.471072,147.063623 205,149.796425 205,152.000026 L205,182.994678 C205,185.759041 202.767508,188 199.997581,188 L192.013306,188 L181.942505,188 L171.976074,188 L161.983032,188 L152.011597,188 L141.975586,188 L131.999023,188 L121.943481,188 L112.014648,188 L101.96228,188 L92.019043,188 L82.0025635,188 L72.0001221,188 L62.0014648,188 L52.0141602,188 L41.9312744,188 L32.0056152,188 L22.0216064,188 L12.0350342,188 L4.99938313,188 C2.23830007,188 0,185.75735 0,183.003951 L0,156.997893 Z" id="path-8"></path>
    </defs>
    <g id="General" stroke="none" stroke-width="1" fill="none" fill-rule="evenodd">
        <g id="Group-2">
            <g id="Group-4">
                <mask id="mask-2" fill="white">
                    <use xlink:href="#path-1"></use>
                </mask>
                <use id="Mask" fill="#740AE4" xlink:href="#path-1"></use>
                <g mask="url(#mask-2)" id="Rectangle-20">
                    <g transform="translate(-2.000000, 114.000000)">
                        <g>
                            <use fill="url(#linearGradient-3)" fill-rule="evenodd" xlink:href="#path-4"></use>
                            <path stroke="#F1C538" stroke-width="1.5" d="M0.75,93.0086383 L0.75,192.997342 C0.75,195.346527 2.65239236,197.25 4.99938313,197.25 L199.997581,197.25 C202.350446,197.25 204.25,195.346224 204.25,192.991424 L204.25,87.9904763 C204.25,86.050502 202.855765,83.5662637 201.193338,82.5481265 L194.96075,78.7310392 C193.073299,77.5750885 190.012576,75.7183449 188.114782,74.5780124 L185.002176,72.7077316 C183.386559,71.7369513 180.877759,71.9761913 179.481249,73.233342 L175.428699,76.8814834 C173.79467,78.3524501 171.212258,80.803463 169.66091,82.3556823 L165.314354,86.70468 C163.393488,88.626626 160.719765,88.191705 159.508507,85.7586467 L153.111947,72.9098451 C152.134787,70.9470196 150.469354,67.7912414 149.398655,65.8737192 L143.247492,54.8575669 C142.479322,53.4818482 141.750822,53.5289716 141.166297,54.9937346 L134.155459,72.5622194 C133.071575,75.2783299 130.953058,75.1800303 130.128574,72.3775364 L122.381871,46.0458177 C121.758085,43.9255131 120.735469,40.5016135 120.093437,38.3836589 L112.414306,13.0514932 C111.805765,11.0440171 110.089055,8.1742405 108.611349,6.69037609 L104.306988,2.36807614 C103.070651,1.12658579 101.311688,1.27304147 100.294086,2.70014059 L94.9671409,10.1707222 C93.6883784,11.9640763 91.7022548,14.9255429 90.5324358,16.7830814 L84.7176691,26.0162646 C83.5751273,27.83049 82.0801282,30.9965565 81.4036764,33.0356694 L73.9724209,55.436628 C73.2646426,57.5701724 71.890009,60.9028083 70.8899229,62.9100618 L64.4881863,75.7588634 C63.3204349,78.1026346 60.4700147,79.0599444 58.1241008,77.8948242 L55.2122115,76.4486069 C53.5704931,75.633232 51.391781,76.2180496 50.3747665,77.7447827 L44.8178275,86.0868104 C43.3723571,88.2567377 40.3997177,88.9280871 38.166022,87.5864776 L35.0241696,85.6994081 C33.3751645,84.7089774 30.5981848,84.7113586 28.9439877,85.7073785 L25.8378118,87.5776592 C23.626842,88.9089213 20.5326054,88.3880171 18.8761922,86.4062723 L13.9860771,80.555703 C12.8490708,79.1953804 10.9447873,79.1085579 9.69544182,80.3587809 L3.3571678,86.7015069 C1.9335315,88.1261431 0.75,90.9909489 0.75,93.0086383 Z"></path>
                        </g>
                        <g>
                            <use fill="url(#linearGradient-5)" fill-rule="evenodd" xlink:href="#path-6"></use>
                            <path stroke="#FF5559" stroke-width="1.5" d="M68.1812483,110.158268 C68.0741697,110.187874 67.9254474,110.220671 67.7342174,110.251583 C66.3710153,110.471946 64.4241466,110.369243 61.853772,109.727675 C60.6250557,109.420987 59.4643782,109.025167 58.3778253,108.561151 C57.4266296,108.15494 56.5831355,107.718962 55.855533,107.281554 C55.4127335,107.015359 55.1027983,106.804472 55.0061388,106.725197 C53.3004864,105.723542 50.451433,105.597614 48.7246208,106.461706 L45.8908395,107.879722 C43.8974884,108.877189 40.607694,110.355811 38.5350993,111.18571 L35.9850098,112.206805 C33.6061456,113.159339 30.5367238,112.256587 29.0516883,110.170203 L23.7343184,102.699621 C22.6991294,101.245244 20.7515439,100.972356 19.3569643,102.084679 L15.5915482,105.087993 C13.8785368,106.454299 11.2390961,108.814042 9.69544182,110.358781 L3.3571678,116.701507 C1.93343581,118.126239 0.75,120.986754 0.75,122.998956 L0.75,192.998264 C0.75,195.347959 2.65174785,197.25 4.99938313,197.25 L199.00336,197.25 C201.346308,197.25 203.25,195.344789 203.25,192.996975 L203.25,117.994984 C203.25,116.043007 201.884507,113.496932 200.257408,112.41782 L194.851033,108.832245 C193.023053,107.619906 190.002716,105.712421 188.114782,104.578012 L185.002176,102.707732 C183.386559,101.736951 180.877759,101.976191 179.481249,103.233342 L175.428699,106.881483 C173.488373,108.628182 170.442738,108.548501 168.599952,106.70468 L164.253396,102.355682 C162.835391,100.93688 159.972744,99.75 157.967574,99.75 L155.995683,99.75 C153.623776,99.75 150.268749,98.5779512 148.411187,97.0994096 L144.610477,94.074204 C143.227535,92.9734403 141.342894,93.2708837 140.362909,94.744332 L134.81466,103.08636 C133.396512,105.218604 130.365057,106.163511 127.987179,105.212615 L125.405326,104.180151 C123.556249,103.440719 120.512387,103.568709 118.725452,104.46186 L115.888416,105.879876 C113.649282,106.999046 110.329251,106.644084 108.376532,105.075399 L104.665251,102.094 C103.149097,100.876022 100.376049,100.463216 98.5730876,101.185644 L96.0247431,102.206739 C93.7978856,103.099018 90.2610712,103.10529 88.0284308,102.218995 L85.3989601,101.175171 C83.6193558,100.468719 81.008206,101.011817 79.6586053,102.367907 L75.3569882,106.690207 C73.6889649,108.36625 70.53912,109.885251 68.1812483,110.158268 Z"></path>
                        </g>
                        <g>
                            <use fill="url(#linearGradient-7)" fill-rule="evenodd" xlink:href="#path-8"></use>
                            <path stroke="#01C864" stroke-width="1.5" d="M0.75,156.997893 L0.75,183.003951 C0.75,185.345178 2.65455498,187.25 4.99938313,187.25 L12.0350342,187.25 L192.013306,187.25 L199.997581,187.25 C202.350555,187.25 204.25,185.34757 204.25,182.994678 L204.25,152.000026 C204.25,150.055537 202.855152,147.565889 201.193338,146.548127 L194.96075,142.731039 C193.073299,141.575088 190.012576,139.718345 188.114782,138.578012 L185.002176,136.707732 C183.386559,135.736951 180.877759,135.976191 179.481249,137.233342 L175.428699,140.881483 C173.79467,142.35245 171.212258,144.803463 169.66091,146.355682 L165.314354,150.70468 C163.393488,152.626626 160.719765,152.191705 159.508507,149.758647 L153.111947,136.909845 C152.41056,135.500966 151.679863,135.512828 151.025794,136.944509 L144.294377,151.678804 C143.136271,154.213766 140.660597,154.41184 139.113929,152.08636 L133.56568,143.744332 C132.669481,142.39686 131.674862,142.474543 131.007078,143.943274 L124.307872,158.677569 C123.129225,161.269897 120.828522,161.24817 119.689473,158.629283 L112.878237,142.968984 C112.206099,141.423614 110.864368,141.172961 109.674213,142.368076 L105.369852,146.690376 C103.477643,148.590471 100.629071,148.353291 99.0727761,146.170722 L93.7458309,138.700141 C92.756753,137.313044 91.2913596,137.30816 90.3002605,138.685193 L84.8980287,146.191052 C83.3751419,148.306951 80.3689617,148.921205 78.1400722,147.577441 L75.0378536,145.70716 C73.4420537,144.745077 71.0214269,145.044699 69.7025534,146.368242 L65.3955018,150.690542 C63.7725931,152.319196 60.8424252,154.42991 58.7913285,155.448607 L55.8794392,156.894824 C53.6881523,157.983148 50.2427215,157.975265 48.0533744,156.879722 L45.219593,155.461706 C43.2276401,154.464939 40.0725003,152.731553 38.166022,151.586478 L35.0241696,149.699408 C33.3751645,148.708977 30.5981848,148.711359 28.9439877,149.707379 L25.8378118,151.577659 C23.626842,152.908921 20.5326054,152.388017 18.8761922,150.406272 L13.9860771,144.555703 C12.8490708,143.19538 10.9447873,143.108558 9.69544182,144.358781 L3.3571678,150.701507 C1.9334253,152.126249 0.75,154.986294 0.75,156.997893 Z"></path>
                        </g>
                    </g>
                </g>
            </g>
            <path d="M10.6933594,77.1660156 C9.19921875,77.1660156 8.15429688,76.3212891 8.15429688,75.1152344 C8.15429688,74.1972656 8.73535156,73.484375 9.61914062,73.3183594 L9.61914062,73.2402344 C8.90136719,73.0449219 8.44238281,72.4345703 8.44238281,71.6679688 C8.44238281,70.5693359 9.375,69.7880859 10.6933594,69.7880859 C12.0117188,69.7880859 12.9443359,70.5693359 12.9443359,71.6679688 C12.9443359,72.4394531 12.4951172,73.0400391 11.7675781,73.2402344 L11.7675781,73.3183594 C12.6513672,73.484375 13.2324219,74.1972656 13.2324219,75.1152344 C13.2324219,76.3212891 12.1875,77.1660156 10.6933594,77.1660156 Z M10.6933594,76.4140625 C11.6699219,76.4140625 12.34375,75.8574219 12.34375,75.0517578 C12.34375,74.2460938 11.6699219,73.6894531 10.6933594,73.6894531 C9.71679688,73.6894531 9.04296875,74.2460938 9.04296875,75.0517578 C9.04296875,75.8574219 9.71679688,76.4140625 10.6933594,76.4140625 Z M10.6933594,72.9472656 C11.5234375,72.9472656 12.0800781,72.46875 12.0800781,71.7509766 C12.0800781,71.0234375 11.5283203,70.5400391 10.6933594,70.5400391 C9.85839844,70.5400391 9.30664062,71.0234375 9.30664062,71.7509766 C9.30664062,72.46875 9.86328125,72.9472656 10.6933594,72.9472656 Z M17.1582031,77.1660156 C15.5712891,77.1660156 14.6582031,75.8183594 14.6582031,73.4746094 C14.6582031,71.1503906 15.5810547,69.7880859 17.1582031,69.7880859 C18.7255859,69.7880859 19.6484375,71.1552734 19.6484375,73.4892578 C19.6484375,75.828125 18.7402344,77.1660156 17.1582031,77.1660156 Z M17.1582031,76.3994141 C18.1982422,76.3994141 18.7646484,75.3642578 18.7646484,73.4746094 C18.7646484,71.6044922 18.1884766,70.5595703 17.1582031,70.5595703 C16.1279297,70.5595703 15.5419922,71.6142578 15.5419922,73.4746094 C15.5419922,75.359375 16.1181641,76.3994141 17.1582031,76.3994141 Z M26.7675781,77.0927734 C26.0351562,77.0927734 25.4101562,76.7460938 25.078125,76.1601562 L25,76.1601562 L25,77 L24.1992188,77 L24.1992188,69.6464844 L25.0390625,69.6464844 L25.0390625,72.5664062 L25.1171875,72.5664062 C25.4052734,72 26.0449219,71.6435547 26.7675781,71.6435547 C28.1054688,71.6435547 28.9746094,72.7128906 28.9746094,74.3681641 C28.9746094,76.0136719 28.1005859,77.0927734 26.7675781,77.0927734 Z M26.5722656,72.4003906 C25.6152344,72.4003906 25.0195312,73.1523438 25.0195312,74.3681641 C25.0195312,75.5839844 25.6152344,76.3359375 26.5722656,76.3359375 C27.5341797,76.3359375 28.1054688,75.5986328 28.1054688,74.3681641 C28.1054688,73.1376953 27.5341797,72.4003906 26.5722656,72.4003906 Z M32.9736328,71.6435547 C34.3164062,71.6435547 35.1855469,72.7128906 35.1855469,74.3681641 C35.1855469,76.0136719 34.3115234,77.0927734 32.9736328,77.0927734 C32.2216797,77.0927734 31.6162109,76.765625 31.328125,76.2089844 L31.25,76.2089844 L31.25,78.7578125 L30.4101562,78.7578125 L30.4101562,71.7363281 L31.2109375,71.7363281 L31.2109375,72.6152344 L31.2890625,72.6152344 C31.6259766,72.0097656 32.2558594,71.6435547 32.9736328,71.6435547 Z M32.7734375,76.3359375 C33.7402344,76.3359375 34.3164062,75.5986328 34.3164062,74.3681641 C34.3164062,73.1376953 33.7402344,72.4003906 32.7783203,72.4003906 C31.8261719,72.4003906 31.2255859,73.1572266 31.2255859,74.3681641 C31.2255859,75.5742188 31.8261719,76.3359375 32.7734375,76.3359375 Z M36.4990234,73.1767578 C36.4990234,73.9384766 36.9482422,74.3632812 37.9345703,74.6025391 L38.8378906,74.8222656 C39.3994141,74.9589844 39.6728516,75.203125 39.6728516,75.5644531 C39.6728516,76.0478516 39.1650391,76.3847656 38.4570312,76.3847656 C37.7832031,76.3847656 37.3632812,76.1015625 37.2216797,75.6572266 L36.3574219,75.6572266 C36.4501953,76.53125 37.2558594,77.0927734 38.4277344,77.0927734 C39.6240234,77.0927734 40.5371094,76.4433594 40.5371094,75.5009766 C40.5371094,74.7441406 40.0585938,74.3144531 39.0673828,74.0751953 L38.2568359,73.8798828 C37.6367188,73.7285156 37.34375,73.5039062 37.34375,73.1425781 C37.34375,72.6738281 37.8320312,72.3564453 38.4570312,72.3564453 C39.0917969,72.3564453 39.5019531,72.6347656 39.6142578,73.0546875 L40.4443359,73.0546875 C40.3320312,72.1904297 39.5654297,71.6435547 38.4619141,71.6435547 C37.34375,71.6435547 36.4990234,72.3027344 36.4990234,73.1767578 Z M10.7763672,117.161133 C9.71679688,117.161133 8.90625,116.594727 8.46679688,115.55957 C8.23730469,115.022461 8.125,114.373047 8.125,113.59668 C8.125,111.174805 9.11132812,109.788086 10.8349609,109.788086 C12.03125,109.788086 12.9199219,110.496094 13.1445312,111.628906 L12.2412109,111.628906 C12.0507812,110.969727 11.5185547,110.569336 10.8251953,110.569336 C9.67773438,110.569336 9.02832031,111.584961 8.97949219,113.459961 L9.05761719,113.459961 C9.40429688,112.776367 10.0927734,112.375977 10.9326172,112.375977 C12.2753906,112.375977 13.2470703,113.367188 13.2470703,114.734375 C13.2470703,116.150391 12.2216797,117.161133 10.7763672,117.161133 Z M10.7666016,116.389648 C11.6699219,116.389648 12.3583984,115.686523 12.3583984,114.763672 C12.3583984,113.801758 11.7089844,113.137695 10.7763672,113.137695 C9.84375,113.137695 9.17480469,113.801758 9.17480469,114.734375 C9.17480469,115.676758 9.86328125,116.389648 10.7666016,116.389648 Z M17.1435547,117.166016 C15.5566406,117.166016 14.6435547,115.818359 14.6435547,113.474609 C14.6435547,111.150391 15.5664062,109.788086 17.1435547,109.788086 C18.7109375,109.788086 19.6337891,111.155273 19.6337891,113.489258 C19.6337891,115.828125 18.7255859,117.166016 17.1435547,117.166016 Z M17.1435547,116.399414 C18.1835938,116.399414 18.75,115.364258 18.75,113.474609 C18.75,111.604492 18.1738281,110.55957 17.1435547,110.55957 C16.1132812,110.55957 15.5273438,111.614258 15.5273438,113.474609 C15.5273438,115.359375 16.1035156,116.399414 17.1435547,116.399414 Z M11.5039062,157 L11.5039062,155.540039 L8.07128906,155.540039 L8.07128906,154.739258 C8.70117188,153.621094 9.81933594,151.853516 11.0888672,149.954102 L12.3632812,149.954102 L12.3632812,154.753906 L13.3642578,154.753906 L13.3642578,155.540039 L12.3632812,155.540039 L12.3632812,157 L11.5039062,157 Z M8.96972656,154.700195 L8.96972656,154.758789 L11.5087891,154.758789 L11.5087891,150.769531 L11.4501953,150.769531 C10.7275391,151.819336 9.80957031,153.274414 8.96972656,154.700195 Z M17.2070312,157.166016 C15.6201172,157.166016 14.7070312,155.818359 14.7070312,153.474609 C14.7070312,151.150391 15.6298828,149.788086 17.2070312,149.788086 C18.7744141,149.788086 19.6972656,151.155273 19.6972656,153.489258 C19.6972656,155.828125 18.7890625,157.166016 17.2070312,157.166016 Z M17.2070312,156.399414 C18.2470703,156.399414 18.8134766,155.364258 18.8134766,153.474609 C18.8134766,151.604492 18.2373047,150.55957 17.2070312,150.55957 C16.1767578,150.55957 15.5908203,151.614258 15.5908203,153.474609 C15.5908203,155.359375 16.1669922,156.399414 17.2070312,156.399414 Z M8.2421875,191.936523 L8.2421875,191.941406 L9.09179688,191.941406 L9.09179688,191.936523 C9.09179688,191.106445 9.6484375,190.554688 10.4736328,190.554688 C11.25,190.554688 11.8505859,191.09668 11.8505859,191.799805 C11.8505859,192.366211 11.6308594,192.74707 10.7226562,193.733398 L8.28613281,196.394531 L8.28613281,197 L12.8466797,197 L12.8466797,196.208984 L9.54589844,196.208984 L9.54589844,196.130859 L11.2402344,194.30957 C12.3974609,193.069336 12.7294922,192.498047 12.7294922,191.765625 C12.7294922,190.647461 11.7626953,189.788086 10.4980469,189.788086 C9.18945312,189.788086 8.2421875,190.686523 8.2421875,191.936523 Z M16.8115234,197.166016 C15.2246094,197.166016 14.3115234,195.818359 14.3115234,193.474609 C14.3115234,191.150391 15.234375,189.788086 16.8115234,189.788086 C18.3789062,189.788086 19.3017578,191.155273 19.3017578,193.489258 C19.3017578,195.828125 18.3935547,197.166016 16.8115234,197.166016 Z M16.8115234,196.399414 C17.8515625,196.399414 18.4179688,195.364258 18.4179688,193.474609 C18.4179688,191.604492 17.8417969,190.55957 16.8115234,190.55957 C15.78125,190.55957 15.1953125,191.614258 15.1953125,193.474609 C15.1953125,195.359375 15.7714844,196.399414 16.8115234,196.399414 Z M9.97070312,237 L10.8496094,237 L10.8496094,229.954102 L9.97558594,229.954102 L8.10058594,231.301758 L8.10058594,232.229492 L9.89257812,230.930664 L9.97070312,230.930664 L9.97070312,237 Z M15.4345703,237.166016 C13.8476562,237.166016 12.9345703,235.818359 12.9345703,233.474609 C12.9345703,231.150391 13.8574219,229.788086 15.4345703,229.788086 C17.0019531,229.788086 17.9248047,231.155273 17.9248047,233.489258 C17.9248047,235.828125 17.0166016,237.166016 15.4345703,237.166016 Z M15.4345703,236.399414 C16.4746094,236.399414 17.0410156,235.364258 17.0410156,233.474609 C17.0410156,231.604492 16.4648438,230.55957 15.4345703,230.55957 C14.4042969,230.55957 13.8183594,231.614258 13.8183594,233.474609 C13.8183594,235.359375 14.3945312,236.399414 15.4345703,236.399414 Z M10.6542969,277.166016 C9.06738281,277.166016 8.15429688,275.818359 8.15429688,273.474609 C8.15429688,271.150391 9.07714844,269.788086 10.6542969,269.788086 C12.2216797,269.788086 13.1445312,271.155273 13.1445312,273.489258 C13.1445312,275.828125 12.2363281,277.166016 10.6542969,277.166016 Z M10.6542969,276.399414 C11.6943359,276.399414 12.2607422,275.364258 12.2607422,273.474609 C12.2607422,271.604492 11.6845703,270.55957 10.6542969,270.55957 C9.62402344,270.55957 9.03808594,271.614258 9.03808594,273.474609 C9.03808594,275.359375 9.61425781,276.399414 10.6542969,276.399414 Z" id="80-bps-60-40-20-10-0" fill="#FFFFFF" opacity="0.400000006"></path>
            <path d="M79.6015625,29 L79.6015625,18.9921875 L83.234375,18.9921875 L83.234375,17.7265625 L74.5625,17.7265625 L74.5625,18.9921875 L78.1953125,18.9921875 L78.1953125,29 L79.6015625,29 Z M84.921875,29 L86.265625,29 L86.265625,23.78125 C86.265625,22.59375 87.1953125,21.734375 88.4765625,21.734375 C88.7421875,21.734375 89.2265625,21.78125 89.3359375,21.8125 L89.3359375,20.46875 C89.1640625,20.4453125 88.8828125,20.4296875 88.6640625,20.4296875 C87.546875,20.4296875 86.578125,21.0078125 86.328125,21.828125 L86.203125,21.828125 L86.203125,20.578125 L84.921875,20.578125 L84.921875,29 Z M93.296875,27.96875 C94.6796875,27.96875 95.703125,27.0625 95.703125,25.859375 L95.703125,25.0859375 L93.4375,25.234375 C92.15625,25.3203125 91.59375,25.765625 91.59375,26.609375 C91.59375,27.46875 92.3203125,27.96875 93.296875,27.96875 Z M93.046875,29.1484375 C91.4140625,29.1484375 90.203125,28.1796875 90.203125,26.640625 C90.203125,25.1328125 91.3125,24.265625 93.2734375,24.1484375 L95.703125,24 L95.703125,23.234375 C95.703125,22.1953125 95.0546875,21.625 93.796875,21.625 C92.7890625,21.625 92.0859375,22.0078125 91.8984375,22.671875 L90.5390625,22.671875 C90.71875,21.3203125 92.046875,20.4296875 93.84375,20.4296875 C95.8984375,20.4296875 97.046875,21.484375 97.046875,23.234375 L97.046875,29 L95.765625,29 L95.765625,27.7578125 L95.640625,27.7578125 C95.09375,28.65625 94.171875,29.1484375 93.046875,29.1484375 Z M99.78125,29 L101.125,29 L101.125,21.703125 L103.054688,21.703125 L103.054688,20.578125 L101.125,20.578125 L101.125,19.796875 C101.125,18.8515625 101.578125,18.4453125 102.382812,18.4453125 C102.648438,18.4453125 102.953125,18.4765625 103.132812,18.515625 L103.132812,17.390625 C102.804688,17.3359375 102.570312,17.3125 102.304688,17.3125 C100.679688,17.3125 99.78125,18.03125 99.78125,19.7578125 L99.78125,20.578125 L98.3828125,20.578125 L98.3828125,21.703125 L99.78125,21.703125 L99.78125,29 Z M105.257812,29 L106.601562,29 L106.601562,21.703125 L108.53125,21.703125 L108.53125,20.578125 L106.601562,20.578125 L106.601562,19.796875 C106.601562,18.8515625 107.054688,18.4453125 107.859375,18.4453125 C108.125,18.4453125 108.429688,18.4765625 108.609375,18.515625 L108.609375,17.390625 C108.28125,17.3359375 108.046875,17.3125 107.78125,17.3125 C106.15625,17.3125 105.257812,18.03125 105.257812,19.7578125 L105.257812,20.578125 L103.859375,20.578125 L103.859375,21.703125 L105.257812,21.703125 L105.257812,29 Z M110.203125,29 L111.546875,29 L111.546875,20.578125 L110.203125,20.578125 L110.203125,29 Z M110.875,18.8671875 C111.390625,18.8671875 111.8125,18.4453125 111.8125,17.9296875 C111.8125,17.4140625 111.390625,16.9921875 110.875,16.9921875 C110.359375,16.9921875 109.9375,17.4140625 109.9375,17.9296875 C109.9375,18.4453125 110.359375,18.8671875 110.875,18.8671875 Z M120.765625,23.15625 C120.53125,21.65625 119.28125,20.4296875 117.234375,20.4296875 C114.875,20.4296875 113.375,22.1328125 113.375,24.7578125 C113.375,27.4375 114.882812,29.1484375 117.242188,29.1484375 C119.265625,29.1484375 120.523438,28.0078125 120.765625,26.4609375 L119.40625,26.4609375 C119.15625,27.4140625 118.367188,27.9375 117.234375,27.9375 C115.734375,27.9375 114.765625,26.703125 114.765625,24.7578125 C114.765625,22.8515625 115.71875,21.640625 117.234375,21.640625 C118.445312,21.640625 119.1875,22.3203125 119.40625,23.15625 L120.765625,23.15625 Z" id="Traffic" fill="#FFFFFF"></path>
            <rect id="Rectangle-21" fill="#FFFFFF" opacity="0.100000001" x="0" y="45" width="200" height="1"></rect>
        </g>
    </g>
</svg>
