<svg width="200px" height="300px" viewBox="0 0 200 300" version="1.1" xmlns="http://www.w3.org/2000/svg" xmlns:xlink="http://www.w3.org/1999/xlink">
    <desc>Created with Sketch.</desc>
    <defs>
        <linearGradient x1="50%" y1="0%" x2="50%" y2="83.1229441%" id="linearGradient-1">
            <stop stop-color="#F1C539" offset="0%"></stop>
            <stop stop-color="#F1C538" offset="100%"></stop>
        </linearGradient>
    </defs>
    <g id="General" stroke="none" stroke-width="1" fill="none" fill-rule="evenodd">
        <g id="Group-2">
            <rect id="Rectangle-14" fill="#0061CE" x="0" y="0" width="200" height="300" rx="6"></rect>
            <path d="M48.625,29 L48.625,17.7265625 L47.21875,17.7265625 L47.21875,22.6015625 L41.03125,22.6015625 L41.03125,17.7265625 L39.625,17.7265625 L39.625,29 L41.03125,29 L41.03125,23.8671875 L47.21875,23.8671875 L47.21875,29 L48.625,29 Z M55.5234375,29 L55.5234375,18.9921875 L59.15625,18.9921875 L59.15625,17.7265625 L50.484375,17.7265625 L50.484375,18.9921875 L54.1171875,18.9921875 L54.1171875,29 L55.5234375,29 Z M65.3515625,29 L65.3515625,18.9921875 L68.984375,18.9921875 L68.984375,17.7265625 L60.3125,17.7265625 L60.3125,18.9921875 L63.9453125,18.9921875 L63.9453125,29 L65.3515625,29 Z M70.84375,17.7265625 L75.1015625,17.7265625 C77.234375,17.7265625 78.7109375,19.2265625 78.7109375,21.375 C78.7109375,23.484375 77.203125,24.9765625 75.0859375,24.9765625 L72.25,24.9765625 L72.25,29 L70.84375,29 L70.84375,17.7265625 Z M72.25,18.9765625 L72.25,23.7265625 L74.734375,23.7265625 C76.3359375,23.7265625 77.265625,22.8671875 77.265625,21.375 C77.265625,19.828125 76.3671875,18.9765625 74.734375,18.9765625 L72.25,18.9765625 Z M88.4375,29.265625 C90.7734375,29.265625 92.375,27.703125 92.375,25.4140625 C92.375,23.1953125 90.875,21.640625 88.734375,21.640625 C87.6953125,21.640625 86.8984375,21.9609375 86.3515625,22.6015625 L86.2265625,22.6015625 L86.546875,18.984375 L91.734375,18.984375 L91.734375,17.7265625 L85.4453125,17.7265625 L84.828125,24.1171875 L86.1484375,24.1171875 C86.609375,23.3125 87.453125,22.8515625 88.4765625,22.8515625 C89.953125,22.8515625 90.96875,23.90625 90.96875,25.453125 C90.96875,27 89.9609375,28.03125 88.453125,28.03125 C87.125,28.03125 86.15625,27.21875 86.03125,26 L84.6484375,26 C84.7734375,27.9453125 86.3046875,29.265625 88.4375,29.265625 Z M97.296875,25.8203125 L99.2890625,29 L100.882812,29 L97.984375,24.734375 L100.84375,20.578125 L99.3203125,20.578125 L97.34375,23.7109375 L97.21875,23.7109375 L95.21875,20.578125 L93.6171875,20.578125 L96.53125,24.7890625 L93.6484375,29 L95.171875,29 L97.171875,25.8203125 L97.296875,25.8203125 Z M105.390625,25.8203125 L107.382813,29 L108.976563,29 L106.078125,24.734375 L108.9375,20.578125 L107.414063,20.578125 L105.4375,23.7109375 L105.3125,23.7109375 L103.3125,20.578125 L101.710938,20.578125 L104.625,24.7890625 L101.742188,29 L103.265625,29 L105.265625,25.8203125 L105.390625,25.8203125 Z M118.0625,21.6171875 C116.71875,21.6171875 115.78125,22.6015625 115.679688,24.09375 L120.320312,24.09375 C120.289062,22.6015625 119.398438,21.6171875 118.0625,21.6171875 Z M120.28125,26.8203125 L121.625,26.8203125 C121.21875,28.265625 119.921875,29.1484375 118.078125,29.1484375 C115.742188,29.1484375 114.28125,27.4609375 114.28125,24.796875 C114.28125,22.1484375 115.765625,20.4296875 118.078125,20.4296875 C120.351562,20.4296875 121.734375,22.046875 121.734375,24.6640625 L121.734375,25.1796875 L115.679688,25.1796875 L115.679688,25.2421875 C115.75,26.90625 116.679688,27.9609375 118.109375,27.9609375 C119.195312,27.9609375 119.929688,27.5625 120.28125,26.8203125 Z M123.53125,29 L124.875,29 L124.875,23.78125 C124.875,22.59375 125.804688,21.734375 127.085938,21.734375 C127.351562,21.734375 127.835938,21.78125 127.945312,21.8125 L127.945312,20.46875 C127.773438,20.4453125 127.492188,20.4296875 127.273438,20.4296875 C126.15625,20.4296875 125.1875,21.0078125 124.9375,21.828125 L124.8125,21.828125 L124.8125,20.578125 L123.53125,20.578125 L123.53125,29 Z M129.3125,29 L130.65625,29 L130.65625,23.78125 C130.65625,22.59375 131.585938,21.734375 132.867188,21.734375 C133.132812,21.734375 133.617188,21.78125 133.726562,21.8125 L133.726562,20.46875 C133.554688,20.4453125 133.273438,20.4296875 133.054688,20.4296875 C131.9375,20.4296875 130.96875,21.0078125 130.71875,21.828125 L130.59375,21.828125 L130.59375,20.578125 L129.3125,20.578125 L129.3125,29 Z M138.554688,27.9375 C140.148438,27.9375 141.046875,26.78125 141.046875,24.7890625 C141.046875,22.7890625 140.148438,21.640625 138.554688,21.640625 C136.960938,21.640625 136.0625,22.7890625 136.0625,24.7890625 C136.0625,26.78125 136.960938,27.9375 138.554688,27.9375 Z M138.554688,29.1484375 C136.15625,29.1484375 134.671875,27.4921875 134.671875,24.7890625 C134.671875,22.078125 136.15625,20.4296875 138.554688,20.4296875 C140.953125,20.4296875 142.4375,22.078125 142.4375,24.7890625 C142.4375,27.4921875 140.953125,29.1484375 138.554688,29.1484375 Z M144.234375,29 L145.578125,29 L145.578125,23.78125 C145.578125,22.59375 146.507812,21.734375 147.789062,21.734375 C148.054688,21.734375 148.539062,21.78125 148.648438,21.8125 L148.648438,20.46875 C148.476562,20.4453125 148.195312,20.4296875 147.976562,20.4296875 C146.859375,20.4296875 145.890625,21.0078125 145.640625,21.828125 L145.515625,21.828125 L145.515625,20.578125 L144.234375,20.578125 L144.234375,29 Z M149.820312,22.8828125 C149.820312,24.1015625 150.539062,24.78125 152.117188,25.1640625 L153.5625,25.515625 C154.460938,25.734375 154.898438,26.125 154.898438,26.703125 C154.898438,27.4765625 154.085938,28.015625 152.953125,28.015625 C151.875,28.015625 151.203125,27.5625 150.976562,26.8515625 L149.59375,26.8515625 C149.742188,28.25 151.03125,29.1484375 152.90625,29.1484375 C154.820312,29.1484375 156.28125,28.109375 156.28125,26.6015625 C156.28125,25.390625 155.515625,24.703125 153.929688,24.3203125 L152.632812,24.0078125 C151.640625,23.765625 151.171875,23.40625 151.171875,22.828125 C151.171875,22.078125 151.953125,21.5703125 152.953125,21.5703125 C153.96875,21.5703125 154.625,22.015625 154.804688,22.6875 L156.132812,22.6875 C155.953125,21.3046875 154.726562,20.4296875 152.960938,20.4296875 C151.171875,20.4296875 149.820312,21.484375 149.820312,22.8828125 Z" id="HTTP-5xx-errors" fill="#FFFFFF"></path>
            <path d="M8,162.005981 C8,160.898108 8.88772964,160 10,160 C11.1045695,160 12,160.894012 12,162.005981 L12,300 L8,300 L8,162.005981 Z M23,121.990698 C23,120.891266 23.8877296,120 25,120 C26.1045695,120 27,120.904452 27,121.990698 L27,300 L23,300 L23,121.990698 Z M38,192.003157 C38,190.896844 38.8877296,190 40,190 C41.1045695,190 42,190.885439 42,192.003157 L42,300 L38,300 L38,192.003157 Z M53,141.99403 C53,140.892757 53.8877296,140 55,140 C56.1045695,140 57,140.899814 57,141.99403 L57,300 L53,300 L53,141.99403 Z M68,172.002914 C68,170.896735 68.8877296,170 70,170 C71.1045695,170 72,170.899564 72,172.002914 L72,300 L68,300 L68,172.002914 Z M83,162.005981 C83,160.898108 83.8877296,160 85,160 C86.1045695,160 87,160.894012 87,162.005981 L87,300 L83,300 L83,162.005981 Z M98,192.003157 C98,190.896844 98.8877296,190 100,190 C101.104569,190 102,190.885439 102,192.003157 L102,300 L98,300 L98,192.003157 Z M113,131.997683 C113,130.894393 113.88773,130 115,130 C116.104569,130 117,130.894277 117,131.997683 L117,300 L113,300 L113,131.997683 Z M128,152.007019 C128,150.898573 128.88773,150 130,150 C131.104569,150 132,150.899845 132,152.007019 L132,300 L128,300 L128,152.007019 Z M143,172.002914 C143,170.896735 143.88773,170 145,170 C146.104569,170 147,170.899564 147,172.002914 L147,300 L143,300 L143,172.002914 Z M158,112.005232 C158,110.897773 158.88773,110 160,110 C161.104569,110 162,110.889391 162,112.005232 L162,300 L158,300 L158,112.005232 Z M173,152.007019 C173,150.898573 173.88773,150 175,150 C176.104569,150 177,150.899845 177,152.007019 L177,300 L173,300 L173,152.007019 Z M188,172.002914 C188,170.896735 188.88773,170 190,170 C191.104569,170 192,170.899564 192,172.002914 L192,300 L188,300 L188,172.002914 Z" id="Combined-Shape" fill="url(#linearGradient-1)"></path>
            <path d="M8,182.007517 C8,180.898796 8.88772964,180 10,180 L10,180 C11.1045695,180 12,180.896916 12,182.007517 L12,300 L8,300 L8,182.007517 Z" id="Rectangle-23" fill="#FF5559"></path>
            <path d="M23,141.99403 C23,140.892757 23.8877296,140 25,140 L25,140 C26.1045695,140 27,140.899814 27,141.99403 L27,300 L23,300 L23,141.99403 Z" id="Rectangle-23" fill="#FF5559"></path>
            <path d="M38,241.996307 C38,240.893777 38.8877296,240 40,240 L40,240 C41.1045695,240 42,240.89473 42,241.996307 L42,300 L38,300 L38,241.996307 Z" id="Rectangle-23" fill="#FF5559"></path>
            <path d="M53,172.002914 C53,170.896735 53.8877296,170 55,170 L55,170 C56.1045695,170 57,170.899564 57,172.002914 L57,300 L53,300 L53,172.002914 Z" id="Rectangle-23" fill="#FF5559"></path>
            <path d="M68,192.003157 C68,190.896844 68.8877296,190 70,190 L70,190 C71.1045695,190 72,190.885439 72,192.003157 L72,300 L68,300 L68,192.003157 Z" id="Rectangle-23" fill="#FF5559"></path>
            <path d="M83,172.002914 C83,170.896735 83.8877296,170 85,170 L85,170 C86.1045695,170 87,170.899564 87,172.002914 L87,300 L83,300 L83,172.002914 Z" id="Rectangle-23" fill="#FF5559"></path>
            <path d="M98,221.997498 C98,220.89431 98.8877296,220 100,220 L100,220 C101.104569,220 102,220.898438 102,221.997498 L102,300 L98,300 L98,221.997498 Z" id="Rectangle-23" fill="#FF5559"></path>
            <path d="M113,192.003157 C113,190.896844 113.88773,190 115,190 L115,190 C116.104569,190 117,190.885439 117,192.003157 L117,300 L113,300 L113,192.003157 Z" id="Rectangle-23" fill="#FF5559"></path>
            <path d="M128,172.002914 C128,170.896735 128.88773,170 130,170 L130,170 C131.104569,170 132,170.899564 132,172.002914 L132,300 L128,300 L128,172.002914 Z" id="Rectangle-23" fill="#FF5559"></path>
            <path d="M143,201.997538 C143,200.894328 143.88773,200 145,200 L145,200 C146.104569,200 147,200.895051 147,201.997538 L147,300 L143,300 L143,201.997538 Z" id="Rectangle-23" fill="#FF5559"></path>
            <path d="M158,121.990698 C158,120.891266 158.88773,120 160,120 L160,120 C161.104569,120 162,120.904452 162,121.990698 L162,300 L158,300 L158,121.990698 Z" id="Rectangle-23" fill="#FF5559"></path>
            <path d="M173,192.003157 C173,190.896844 173.88773,190 175,190 L175,190 C176.104569,190 177,190.885439 177,192.003157 L177,300 L173,300 L173,192.003157 Z" id="Rectangle-23" fill="#FF5559"></path>
            <path d="M188,221.997498 C188,220.89431 188.88773,220 190,220 L190,220 C191.104569,220 192,220.898438 192,221.997498 L192,300 L188,300 L188,221.997498 Z" id="Rectangle-23" fill="#FF5559"></path>
            <path d="M8,212.005965 C8,210.898101 8.88772964,210 10,210 L10,210 C11.1045695,210 12,210.890762 12,212.005965 L12,300 L8,300 L8,212.005965 Z" id="Rectangle-23" fill="#01C864"></path>
            <path d="M23,172.002914 C23,170.896735 23.8877296,170 25,170 L25,170 C26.1045695,170 27,170.899564 27,172.002914 L27,300 L23,300 L23,172.002914 Z" id="Rectangle-23" fill="#01C864"></path>
            <path d="M38,271.991617 C38,270.891677 38.8877296,270 40,270 L40,270 C41.1045695,270 42,270.89784 42,271.991617 L42,300 L38,300 L38,271.991617 Z" id="Rectangle-23" fill="#01C864"></path>
            <path d="M53,201.997538 C53,200.894328 53.8877296,200 55,200 L55,200 C56.1045695,200 57,200.895051 57,201.997538 L57,300 L53,300 L53,201.997538 Z" id="Rectangle-23" fill="#01C864"></path>
            <path d="M68,221.997498 C68,220.89431 68.8877296,220 70,220 L70,220 C71.1045695,220 72,220.898438 72,221.997498 L72,300 L68,300 L68,221.997498 Z" id="Rectangle-23" fill="#01C864"></path>
            <path d="M83,201.997538 C83,200.894328 83.8877296,200 85,200 L85,200 C86.1045695,200 87,200.895051 87,201.997538 L87,300 L83,300 L83,201.997538 Z" id="Rectangle-23" fill="#01C864"></path>
            <path d="M98,251.990914 C98,250.891363 98.8877296,250 100,250 L100,250 C101.104569,250 102,250.889064 102,251.990914 L102,300 L98,300 L98,251.990914 Z" id="Rectangle-23" fill="#01C864"></path>
            <path d="M113,221.997498 C113,220.89431 113.88773,220 115,220 L115,220 C116.104569,220 117,220.898438 117,221.997498 L117,300 L113,300 L113,221.997498 Z" id="Rectangle-23" fill="#01C864"></path>
            <path d="M128,201.997538 C128,200.894328 128.88773,200 130,200 L130,200 C131.104569,200 132,200.895051 132,201.997538 L132,300 L128,300 L128,201.997538 Z" id="Rectangle-23" fill="#01C864"></path>
            <path d="M143,232.000799 C143,230.895788 143.88773,230 145,230 L145,230 C146.104569,230 147,230.897816 147,232.000799 L147,300 L143,300 L143,232.000799 Z" id="Rectangle-23" fill="#01C864"></path>
            <path d="M158,152.007019 C158,150.898573 158.88773,150 160,150 L160,150 C161.104569,150 162,150.899845 162,152.007019 L162,300 L158,300 L158,152.007019 Z" id="Rectangle-23" fill="#01C864"></path>
            <path d="M173,221.997498 C173,220.89431 173.88773,220 175,220 L175,220 C176.104569,220 177,220.898438 177,221.997498 L177,300 L173,300 L173,221.997498 Z" id="Rectangle-23" fill="#01C864"></path>
            <path d="M188,251.990914 C188,250.891363 188.88773,250 190,250 L190,250 C191.104569,250 192,250.889064 192,251.990914 L192,300 L188,300 L188,251.990914 Z" id="Rectangle-23" fill="#01C864"></path>
            <rect id="Rectangle-21" fill="#FFFFFF" opacity="0.100000001" x="0" y="45" width="200" height="1"></rect>
            <path d="M9.7265625,73.7529297 L10.6201172,73.7529297 C11.6210938,73.7529297 12.2412109,74.2607422 12.2412109,75.0761719 C12.2412109,75.8476562 11.5820312,76.3994141 10.6542969,76.3994141 C9.74609375,76.3994141 9.11132812,75.9160156 9.03320312,75.1640625 L8.18359375,75.1640625 C8.24707031,76.3701172 9.23339844,77.1660156 10.6640625,77.1660156 C12.0556641,77.1660156 13.1445312,76.2626953 13.1445312,75.1005859 C13.1445312,74.1386719 12.5634766,73.4746094 11.6064453,73.3525391 L11.6064453,73.2744141 C12.3779297,73.0888672 12.8417969,72.4736328 12.8417969,71.6337891 C12.8417969,70.6083984 11.8603516,69.7880859 10.6298828,69.7880859 C9.28710938,69.7880859 8.41308594,70.5400391 8.32519531,71.7607422 L9.1796875,71.7607422 C9.25292969,71.0039062 9.78515625,70.5546875 10.5957031,70.5546875 C11.40625,70.5546875 11.9482422,71.0332031 11.9482422,71.7509766 C11.9482422,72.4833984 11.3818359,73.0009766 10.5810547,73.0009766 L9.7265625,73.0009766 L9.7265625,73.7529297 Z M17.0410156,77.1660156 C15.4541016,77.1660156 14.5410156,75.8183594 14.5410156,73.4746094 C14.5410156,71.1503906 15.4638672,69.7880859 17.0410156,69.7880859 C18.6083984,69.7880859 19.53125,71.1552734 19.53125,73.4892578 C19.53125,75.828125 18.6230469,77.1660156 17.0410156,77.1660156 Z M17.0410156,76.3994141 C18.0810547,76.3994141 18.6474609,75.3642578 18.6474609,73.4746094 C18.6474609,71.6044922 18.0712891,70.5595703 17.0410156,70.5595703 C16.0107422,70.5595703 15.4248047,71.6142578 15.4248047,73.4746094 C15.4248047,75.359375 16.0009766,76.3994141 17.0410156,76.3994141 Z M22.0605469,74.0361328 L21.9824219,74.0361328 L21.9824219,69.6464844 L21.1425781,69.6464844 L21.1425781,77 L21.9824219,77 L21.9824219,75.0029297 L22.4853516,74.5341797 L24.4580078,77 L25.5273438,77 L23.1103516,73.9921875 L25.3759766,71.7363281 L24.3457031,71.7363281 L22.0605469,74.0361328 Z M8.2421875,111.936523 L8.2421875,111.941406 L9.09179688,111.941406 L9.09179688,111.936523 C9.09179688,111.106445 9.6484375,110.554688 10.4736328,110.554688 C11.25,110.554688 11.8505859,111.09668 11.8505859,111.799805 C11.8505859,112.366211 11.6308594,112.74707 10.7226562,113.733398 L8.28613281,116.394531 L8.28613281,117 L12.8466797,117 L12.8466797,116.208984 L9.54589844,116.208984 L9.54589844,116.130859 L11.2402344,114.30957 C12.3974609,113.069336 12.7294922,112.498047 12.7294922,111.765625 C12.7294922,110.647461 11.7626953,109.788086 10.4980469,109.788086 C9.18945312,109.788086 8.2421875,110.686523 8.2421875,111.936523 Z M16.8115234,117.166016 C15.2246094,117.166016 14.3115234,115.818359 14.3115234,113.474609 C14.3115234,111.150391 15.234375,109.788086 16.8115234,109.788086 C18.3789062,109.788086 19.3017578,111.155273 19.3017578,113.489258 C19.3017578,115.828125 18.3935547,117.166016 16.8115234,117.166016 Z M16.8115234,116.399414 C17.8515625,116.399414 18.4179688,115.364258 18.4179688,113.474609 C18.4179688,111.604492 17.8417969,110.55957 16.8115234,110.55957 C15.78125,110.55957 15.1953125,111.614258 15.1953125,113.474609 C15.1953125,115.359375 15.7714844,116.399414 16.8115234,116.399414 Z M9.97070312,157 L10.8496094,157 L10.8496094,149.954102 L9.97558594,149.954102 L8.10058594,151.301758 L8.10058594,152.229492 L9.89257812,150.930664 L9.97070312,150.930664 L9.97070312,157 Z M15.4345703,157.166016 C13.8476562,157.166016 12.9345703,155.818359 12.9345703,153.474609 C12.9345703,151.150391 13.8574219,149.788086 15.4345703,149.788086 C17.0019531,149.788086 17.9248047,151.155273 17.9248047,153.489258 C17.9248047,155.828125 17.0166016,157.166016 15.4345703,157.166016 Z M15.4345703,156.399414 C16.4746094,156.399414 17.0410156,155.364258 17.0410156,153.474609 C17.0410156,151.604492 16.4648438,150.55957 15.4345703,150.55957 C14.4042969,150.55957 13.8183594,151.614258 13.8183594,153.474609 C13.8183594,155.359375 14.3945312,156.399414 15.4345703,156.399414 Z M10.6103516,197.166016 C12.0703125,197.166016 13.0712891,196.189453 13.0712891,194.758789 C13.0712891,193.37207 12.1337891,192.400391 10.7958984,192.400391 C10.1464844,192.400391 9.6484375,192.600586 9.30664062,193.000977 L9.22851562,193.000977 L9.42871094,190.740234 L12.6708984,190.740234 L12.6708984,189.954102 L8.74023438,189.954102 L8.35449219,193.948242 L9.1796875,193.948242 C9.46777344,193.445312 9.99511719,193.157227 10.6347656,193.157227 C11.5576172,193.157227 12.1923828,193.816406 12.1923828,194.783203 C12.1923828,195.75 11.5625,196.394531 10.6201172,196.394531 C9.79003906,196.394531 9.18457031,195.886719 9.10644531,195.125 L8.2421875,195.125 C8.3203125,196.34082 9.27734375,197.166016 10.6103516,197.166016 Z M9.97070312,237 L10.8496094,237 L10.8496094,229.954102 L9.97558594,229.954102 L8.10058594,231.301758 L8.10058594,232.229492 L9.89257812,230.930664 L9.97070312,230.930664 L9.97070312,237 Z M10.6542969,277.166016 C9.06738281,277.166016 8.15429688,275.818359 8.15429688,273.474609 C8.15429688,271.150391 9.07714844,269.788086 10.6542969,269.788086 C12.2216797,269.788086 13.1445312,271.155273 13.1445312,273.489258 C13.1445312,275.828125 12.2363281,277.166016 10.6542969,277.166016 Z M10.6542969,276.399414 C11.6943359,276.399414 12.2607422,275.364258 12.2607422,273.474609 C12.2607422,271.604492 11.6845703,270.55957 10.6542969,270.55957 C9.62402344,270.55957 9.03808594,271.614258 9.03808594,273.474609 C9.03808594,275.359375 9.61425781,276.399414 10.6542969,276.399414 Z" id="30k-20-10-5-1-0" fill="#FFFFFF" opacity="0.400000006"></path>
        </g>
    </g>
</svg>
