<svg width="200px" height="300px" viewBox="0 0 200 300" version="1.1" xmlns="http://www.w3.org/2000/svg" xmlns:xlink="http://www.w3.org/1999/xlink">
    <desc>Created with Sketch.</desc>
    <defs>
        <rect id="path-1" x="0" y="0" width="200" height="300" rx="6"></rect>
        <linearGradient x1="50%" y1="0%" x2="50%" y2="100%" id="linearGradient-3">
            <stop stop-color="#F1C538" stop-opacity="0.3" offset="0%"></stop>
            <stop stop-color="#F1C538" stop-opacity="0" offset="100%"></stop>
        </linearGradient>
        <path d="M0,82.0086383 C0,79.7947285 1.26064415,76.7384704 2.82665156,75.171363 L9.16492558,68.828637 C10.7260421,67.2664239 13.142149,67.3765526 14.5615343,69.0747154 L19.4516493,74.9252846 C20.8709975,76.623403 23.556775,77.0756492 25.4509404,75.9351404 L28.5571163,74.0648596 C30.4510851,72.9244691 32.3842199,70.2479956 32.8729627,68.0952935 L41.0895617,31.9047065 C41.5791691,29.7481966 42.970682,26.5069036 44.1936374,24.6710138 L49.7505765,16.3289862 C50.9753028,14.4904379 53.563327,13.7922649 55.5458254,14.7768914 L58.4577147,16.2231086 C60.4336159,17.2044586 63.2974393,16.7334931 64.8642354,15.16115 L69.171287,10.83885 C70.7336095,9.27099645 73.7908609,8 75.9906977,8 L77.9616948,8 C80.1656289,8 83.6161655,8.66051865 85.6756821,9.47808772 L88.3051529,10.5219123 C90.3615363,11.3382376 93.6994587,11.3304899 95.7457863,10.5105476 L98.2941307,9.48945236 C100.347096,8.66685054 103.272603,9.26650691 104.83842,10.83885 L109.142781,15.16115 C110.704127,16.7290036 113.059446,19.415975 114.404198,21.1635343 L119.539039,27.8364657 C120.883493,29.5836375 122.660914,29.3503828 123.514387,27.3025967 L130.435076,10.6974033 C131.286146,8.65538385 133.691085,7.51571839 135.804695,8.15129852 L138.123894,8.84870148 C140.238383,9.48454609 143.703227,9.65162659 145.867189,9.22102094 L148.088622,8.77897906 C150.250637,8.34876081 153.794847,8 155.995683,8 L157.967574,8 C160.172509,8 163.746757,8 165.967472,8 L167.946834,8 C170.160122,8 173.281961,6.80486949 174.926911,5.32407071 L178.979461,1.67592929 C180.621164,0.198054353 183.490373,-0.0756491721 185.38846,1.06485963 L188.501066,2.93514037 C190.398956,4.07553085 193.699167,4.7302711 195.892129,4.39450654 L201.045371,3.60549346 C203.229452,3.27108865 205,4.78667819 205,6.9943082 L205,112.498047 L205,181.996032 C205,184.759647 202.767508,187 199.997581,187 L192.013306,187 L181.942505,187 L171.976074,187 L161.983032,187 L152.011597,187 L141.975586,187 L131.999023,187 L121.943481,187 L112.014648,187 L101.96228,187 L92.019043,187 L82.0025635,187 L72.0001221,187 L62.0014648,187 L52.0141602,187 L41.9312744,187 L32.0056152,187 L22.0216064,187 L12.0350342,187 L4.99938313,187 C2.23830007,187 0,184.760862 0,181.997342 L0,82.0086383 Z" id="path-4"></path>
        <linearGradient x1="50%" y1="0%" x2="50%" y2="100%" id="linearGradient-5">
            <stop stop-color="#FF5559" stop-opacity="0.4" offset="0%"></stop>
            <stop stop-color="#FF5559" stop-opacity="0" offset="100%"></stop>
        </linearGradient>
        <path d="M0,111.998956 C0,109.790393 1.26064415,106.73847 2.82665156,105.171363 L9.16492558,98.828637 C10.7260421,97.2664239 13.3862097,94.8876343 15.1238837,93.5016571 L18.8892999,90.4983429 C20.619225,89.1185462 23.0598193,89.458626 24.3453434,91.2647092 L29.6627133,98.7352908 C30.9460777,100.53834 33.6472473,101.334991 35.7062175,100.510548 L38.2563069,99.4894524 C40.3106777,98.6668505 43.5814724,97.1966635 45.5552163,96.2090079 L48.3889976,94.7909921 C50.3657032,93.8018545 53.4838552,93.9614625 55.3859333,95.0784695 C55.3859333,95.0784695 57.8821713,96.9633505 62.0354004,98 C66.1886295,99.0366495 68.0318048,98.4202499 68.0318048,98.4202499 C70.2234459,98.1881523 73.2605685,96.7334931 74.8253878,95.16115 L79.1270048,90.83885 C80.687356,89.2709964 83.6161655,88.6605186 85.6756821,89.4780877 L88.3051529,90.5219123 C90.3615363,91.3382376 92.3438172,93.7684595 92.7305347,95.9378113 L101.309382,144.062189 C101.69707,146.236982 103.406524,149.120789 105.13496,150.5093 L108.846241,153.4907 C110.571362,154.876548 113.57709,155.196663 115.553101,154.209008 L118.390136,152.790992 C120.369112,151.801854 123.636357,151.665009 125.683805,152.483768 L128.265658,153.516232 C130.314864,154.335694 132.969127,153.506904 134.19017,151.671014 L139.738419,143.328986 C140.96123,141.490438 143.350033,141.112366 145.07755,142.487397 L148.87826,145.512603 C150.60417,146.886354 153.794847,148 155.995683,148 L157.967574,148 C160.172509,148 163.225757,149.266507 164.783875,150.825501 L169.130431,155.174499 C170.690036,156.73498 173.281961,156.804869 174.926911,155.324071 L178.979461,151.675929 C180.621164,150.198054 183.490373,149.924351 185.38846,151.06486 L188.501066,152.93514 C190.398956,154.075531 193.428698,155.988981 195.265562,157.207212 L200.671938,160.792788 C202.509976,162.011797 204,164.784293 204,166.990053 L204,181.998027 C204,184.760541 201.759456,187 199.00336,187 L192.013306,187 L181.942505,187 L171.976074,187 L161.983032,187 L152.011597,187 L141.975586,187 L131.999023,187 L121.943481,187 L112.014648,187 L101.96228,187 L92.019043,187 L82.0025635,187 L72.0001221,187 L62.0014648,187 L52.0141602,187 L41.9312744,187 L32.0056152,187 L22.0216064,187 L12.0350342,187 L4.99938313,187 C2.23830007,187 0,184.762939 0,181.998264 L0,111.998956 Z" id="path-6"></path>
        <linearGradient x1="50%" y1="0%" x2="50%" y2="98.1425383%" id="linearGradient-7">
            <stop stop-color="#29997A" stop-opacity="0.2" offset="0%"></stop>
            <stop stop-color="#29997A" stop-opacity="0" offset="100%"></stop>
        </linearGradient>
        <path d="M0,145.997893 C0,143.789917 1.26064415,140.73847 2.82665156,139.171363 L9.16492558,132.828637 C10.7260421,131.266424 13.142149,131.376553 14.5615343,133.074715 L19.4516493,138.925285 C20.8709975,140.623403 23.556775,141.075649 25.4509404,139.93514 L28.5571163,138.06486 C30.4510851,136.924469 33.5254364,136.924351 35.410336,138.056465 L38.5521884,139.943535 C40.4431483,141.079289 43.5814724,142.803337 45.5552163,143.790992 L48.3889976,145.209008 C50.3657032,146.198146 53.563327,146.207735 55.5458254,145.223109 L58.4577147,143.776891 C60.4336159,142.795541 63.2974393,140.733493 64.8642354,139.16115 L69.171287,134.83885 C70.7336095,133.270996 73.5333348,132.924351 75.425087,134.06486 L78.5273056,135.93514 C80.4188615,137.075531 82.9926589,136.554485 84.2893016,134.75293 L89.6915334,127.24707 C90.98224,125.453763 93.5664975,123.075649 95.4640738,121.93514 L98.5758432,120.06486 C100.473223,118.924469 103.272603,116.733493 104.83842,115.16115 L109.142781,110.83885 C110.704127,109.270996 113.689518,108.515718 115.808869,109.151299 L118.134368,109.848701 C120.254601,110.484546 123.738643,110.647044 125.898006,110.215287 L128.051457,109.784713 C130.218963,109.351328 133.578962,108.196663 135.549619,107.209008 L138.378969,105.790992 C140.352584,104.801854 143.703227,103.651627 145.867189,103.221021 L148.088622,102.778979 C150.250637,102.348761 153.794847,102 155.995683,102 L157.967574,102 C160.172509,102 163.225757,100.733493 164.783875,99.1744989 L169.130431,94.8255011 C170.690036,93.2650199 173.281961,90.8048695 174.926911,89.3240707 L178.979461,85.6759293 C180.621164,84.1980544 183.490373,83.9243508 185.38846,85.0648596 L188.501066,86.9351404 C190.398956,88.0755309 193.4615,89.9333586 195.352456,91.0914563 L201.585044,94.9085437 C203.471072,96.0636231 205,98.7830797 205,100.994583 L205,171.995642 C205,174.759472 202.767508,177 199.997581,177 L192.013306,177 L181.942505,177 L171.976074,177 L161.983032,177 L152.011597,177 L141.975586,177 L131.999023,177 L121.943481,177 L112.014648,177 L101.96228,177 L92.019043,177 L82.0025635,177 L72.0001221,177 L62.0014648,177 L52.0141602,177 L41.9312744,177 L32.0056152,177 L22.0216064,177 L12.0350342,177 L4.99938313,177 C2.23830007,177 0,174.75735 0,172.003951 L0,145.997893 Z" id="path-8"></path>
    </defs>
    <g id="General" stroke="none" stroke-width="1" fill="none" fill-rule="evenodd">
        <g id="Group-2">
            <g id="Group-4">
                <mask id="mask-2" fill="white">
                    <use xlink:href="#path-1"></use>
                </mask>
                <use id="Mask" fill="#FFFFFF" xlink:href="#path-1"></use>
                <g mask="url(#mask-2)" id="Rectangle-20">
                    <g transform="translate(-2.000000, 125.000000)">
                        <g>
                            <use fill="url(#linearGradient-3)" fill-rule="evenodd" xlink:href="#path-4"></use>
                            <path stroke="#F1C538" stroke-width="1.5" d="M0.75,82.0086383 L0.75,181.997342 C0.75,184.346527 2.65239236,186.25 4.99938313,186.25 L199.997581,186.25 C202.3506,186.25 204.25,184.34813 204.25,181.996032 L204.25,6.9943082 C204.25,5.24707976 202.889753,4.08184015 201.158881,4.34685405 L196.005639,5.13586714 C193.642585,5.49767446 190.165198,4.81005134 188.114782,3.57801238 L185.002176,1.70773163 C183.386559,0.736951274 180.877759,0.976191263 179.481249,2.23334203 L175.428699,5.88148344 C173.647039,7.4853488 170.346806,8.75 167.946834,8.75 L155.995683,8.75 C153.842565,8.75 150.34741,9.09420861 148.234994,9.51455716 L146.013561,9.95659904 C143.729826,10.4110383 140.140546,10.2383016 137.907917,9.56693099 L135.588717,8.86952804 C133.843188,8.34463262 131.830515,9.29880244 131.127356,10.9859309 L124.206667,27.5911242 C123.132703,30.1679469 120.642316,30.5000365 118.94465,28.2938505 L113.809808,21.620919 C112.484615,19.898778 110.150345,17.235786 108.611349,15.6903761 L104.306988,11.3680761 C102.954978,10.0104305 100.348968,9.4740671 98.5730876,10.1856442 L96.0247431,11.2067395 C93.7978856,12.0990183 90.2610712,12.1052897 88.0284308,11.2189954 L85.3989601,10.1751709 C83.428521,9.39296301 80.0719539,8.75 77.9616948,8.75 L75.9906977,8.75 C73.9890175,8.75 71.1232865,9.94247926 69.7025534,11.3682422 L65.3955018,15.6905421 C63.6027271,17.4896638 60.3910711,18.0207364 58.1241008,16.8948242 L55.2122115,15.4486069 C53.5704931,14.633232 51.391781,15.2180496 50.3747665,16.7447827 L44.8178275,25.0868104 C43.64491,26.8475837 42.2900892,30.0043957 41.8209486,32.0707583 L33.6043496,68.2613453 C33.0701187,70.6144027 31.0117512,73.4623433 28.9439877,74.7073785 L25.8378118,76.5776592 C23.626842,77.9089213 20.5326054,77.3880171 18.8761922,75.4062723 L13.9860771,69.555703 C12.8490708,68.1953804 10.9447873,68.1085579 9.69544182,69.3587809 L3.3571678,75.7015069 C1.9335315,77.1261431 0.75,79.9909489 0.75,82.0086383 Z"></path>
                        </g>
                        <g>
                            <use fill="url(#linearGradient-5)" fill-rule="evenodd" xlink:href="#path-6"></use>
                            <path stroke="#FF5559" stroke-width="1.5" d="M68.1812483,99.1582677 C68.0741697,99.1878744 67.9254474,99.2206708 67.7342174,99.2515833 C66.3710153,99.4719458 64.4241466,99.3692429 61.853772,98.7276752 C60.6250557,98.4209865 59.4643782,98.025167 58.3778253,97.5611512 C57.4266296,97.1549402 56.5831355,96.7189621 55.855533,96.2815542 C55.4127335,96.0153594 55.1027983,95.8044723 55.0061388,95.7251968 C53.3004864,94.723542 50.451433,94.5976142 48.7246208,95.4617059 L45.8908395,96.8797217 C43.8974884,97.8771887 40.607694,99.3558111 38.5350993,100.18571 L35.9850098,101.206805 C33.6061456,102.159339 30.5367238,101.256587 29.0516883,99.1702028 L23.7343184,91.6996212 C22.6991294,90.2452436 20.7515439,89.9723555 19.3569643,91.084679 L15.5915482,94.0879931 C13.8785368,95.4542993 11.2390961,97.8140424 9.69544182,99.3587809 L3.3571678,105.701507 C1.93343581,107.126239 0.75,109.986754 0.75,111.998956 L0.75,181.998264 C0.75,184.347959 2.65174785,186.25 4.99938313,186.25 L199.00336,186.25 C201.346343,186.25 203.25,184.345226 203.25,181.998027 L203.25,166.990053 C203.25,165.036517 201.886621,162.498334 200.257408,161.41782 L194.851033,157.832245 C193.023053,156.619906 190.002716,154.712421 188.114782,153.578012 L185.002176,151.707732 C183.386559,150.736951 180.877759,150.976191 179.481249,152.233342 L175.428699,155.881483 C173.488373,157.628182 170.442738,157.548501 168.599952,155.70468 L164.253396,151.355682 C162.835391,149.93688 159.972744,148.75 157.967574,148.75 L155.995683,148.75 C153.623776,148.75 150.268749,147.577951 148.411187,146.09941 L144.610477,143.074204 C143.227535,141.97344 141.342894,142.270884 140.362909,143.744332 L134.81466,152.08636 C133.396512,154.218604 130.365057,155.163511 127.987179,154.212615 L125.405326,153.180151 C123.556249,152.440719 120.512387,152.568709 118.725452,153.46186 L115.888416,154.879876 C113.649282,155.999046 110.329251,155.644084 108.376532,154.075399 L104.665251,151.094 C102.796615,149.592861 100.990803,146.548635 100.571022,144.193812 L91.9921748,96.0694343 C91.6507139,94.1539564 89.8416697,91.9387993 88.0284308,91.2189954 L85.3989601,90.1751709 C83.6193558,89.468719 81.008206,90.0118168 79.6586053,91.3679067 L75.3569882,95.6902066 C73.6889649,97.3662501 70.53912,98.8852512 68.1812483,99.1582677 Z"></path>
                        </g>
                        <g>
                            <use fill="url(#linearGradient-7)" fill-rule="evenodd" xlink:href="#path-8"></use>
                            <path stroke="#01C864" stroke-width="1.5" d="M0.75,145.997893 L0.75,172.003951 C0.75,174.345178 2.65455498,176.25 4.99938313,176.25 L12.0350342,176.25 L192.013306,176.25 L199.997581,176.25 C202.350587,176.25 204.25,174.347969 204.25,171.995642 L204.25,100.994583 C204.25,99.0462177 202.858591,96.5679944 201.193338,95.5481265 L194.96075,91.7310392 C193.073299,90.5750885 190.012576,88.7183449 188.114782,87.5780124 L185.002176,85.7077316 C183.386559,84.7369513 180.877759,84.9761913 179.481249,86.233342 L175.428699,89.8814834 C173.79467,91.3524501 171.212258,93.803463 169.66091,95.3556823 L165.314354,99.70468 C163.615096,101.404894 160.370822,102.75 157.967574,102.75 L155.995683,102.75 C153.842565,102.75 150.34741,103.094209 148.234994,103.514557 L146.013561,103.956599 C143.916153,104.373961 140.629243,105.50212 138.715013,106.461496 L135.885663,107.879511 C133.854154,108.897664 130.430493,110.073878 128.198506,110.520156 L126.045055,110.95073 C123.762476,111.407124 120.154026,111.237384 117.918927,110.567092 L115.593428,109.869689 C113.738523,109.313415 111.040233,109.996363 109.674213,111.368076 L105.369852,115.690376 C103.762058,117.304871 100.914283,119.534419 98.9622039,120.707686 L95.8504345,122.577966 C94.0401297,123.666022 91.531522,125.974478 90.3002605,127.685193 L84.8980287,135.191052 C83.3751419,137.306951 80.3689617,137.921205 78.1400722,136.577441 L75.0378536,134.70716 C73.4420537,133.745077 71.0214269,134.044699 69.7025534,135.368242 L65.3955018,139.690542 C63.7725931,141.319196 60.8424252,143.42991 58.7913285,144.448607 L55.8794392,145.894824 C53.6881523,146.983148 50.2427215,146.975265 48.0533744,145.879722 L45.219593,144.461706 C43.2276401,143.464939 40.0725003,141.731553 38.166022,140.586478 L35.0241696,138.699408 C33.3751645,137.708977 30.5981848,137.711359 28.9439877,138.707379 L25.8378118,140.577659 C23.626842,141.908921 20.5326054,141.388017 18.8761922,139.406272 L13.9860771,133.555703 C12.8490708,132.19538 10.9447873,132.108558 9.69544182,133.358781 L3.3571678,139.701507 C1.9334253,141.126249 0.75,143.986294 0.75,145.997893 Z"></path>
                        </g>
                    </g>
                </g>
            </g>
            <path d="M10.6542969,77.1660156 C9.06738281,77.1660156 8.15429688,75.8183594 8.15429688,73.4746094 C8.15429688,71.1503906 9.07714844,69.7880859 10.6542969,69.7880859 C12.2216797,69.7880859 13.1445312,71.1552734 13.1445312,73.4892578 C13.1445312,75.828125 12.2363281,77.1660156 10.6542969,77.1660156 Z M10.6542969,76.3994141 C11.6943359,76.3994141 12.2607422,75.3642578 12.2607422,73.4746094 C12.2607422,71.6044922 11.6845703,70.5595703 10.6542969,70.5595703 C9.62402344,70.5595703 9.03808594,71.6142578 9.03808594,73.4746094 C9.03808594,75.359375 9.61425781,76.3994141 10.6542969,76.3994141 Z M15.3076172,78.7919922 L16.0302734,76.0136719 L15.0439453,76.0136719 L14.5751953,78.7919922 L15.3076172,78.7919922 Z M20.15625,77.1660156 C18.5693359,77.1660156 17.65625,75.8183594 17.65625,73.4746094 C17.65625,71.1503906 18.5791016,69.7880859 20.15625,69.7880859 C21.7236328,69.7880859 22.6464844,71.1552734 22.6464844,73.4892578 C22.6464844,75.828125 21.7382812,77.1660156 20.15625,77.1660156 Z M20.15625,76.3994141 C21.1962891,76.3994141 21.7626953,75.3642578 21.7626953,73.4746094 C21.7626953,71.6044922 21.1865234,70.5595703 20.15625,70.5595703 C19.1259766,70.5595703 18.5400391,71.6142578 18.5400391,73.4746094 C18.5400391,75.359375 19.1162109,76.3994141 20.15625,76.3994141 Z M24.1601562,71.9365234 L24.1601562,71.9414062 L25.0097656,71.9414062 L25.0097656,71.9365234 C25.0097656,71.1064453 25.5664062,70.5546875 26.3916016,70.5546875 C27.1679688,70.5546875 27.7685547,71.0966797 27.7685547,71.7998047 C27.7685547,72.3662109 27.5488281,72.7470703 26.640625,73.7333984 L24.2041016,76.3945312 L24.2041016,77 L28.7646484,77 L28.7646484,76.2089844 L25.4638672,76.2089844 L25.4638672,76.1308594 L27.1582031,74.3095703 C28.3154297,73.0693359 28.6474609,72.4980469 28.6474609,71.765625 C28.6474609,70.6474609 27.6806641,69.7880859 26.4160156,69.7880859 C25.1074219,69.7880859 24.1601562,70.6865234 24.1601562,71.9365234 Z M31.8017578,73.7529297 L32.6953125,73.7529297 C33.6962891,73.7529297 34.3164062,74.2607422 34.3164062,75.0761719 C34.3164062,75.8476562 33.6572266,76.3994141 32.7294922,76.3994141 C31.8212891,76.3994141 31.1865234,75.9160156 31.1083984,75.1640625 L30.2587891,75.1640625 C30.3222656,76.3701172 31.3085938,77.1660156 32.7392578,77.1660156 C34.1308594,77.1660156 35.2197266,76.2626953 35.2197266,75.1005859 C35.2197266,74.1386719 34.6386719,73.4746094 33.6816406,73.3525391 L33.6816406,73.2744141 C34.453125,73.0888672 34.9169922,72.4736328 34.9169922,71.6337891 C34.9169922,70.6083984 33.9355469,69.7880859 32.7050781,69.7880859 C31.3623047,69.7880859 30.4882812,70.5400391 30.4003906,71.7607422 L31.2548828,71.7607422 C31.328125,71.0039062 31.8603516,70.5546875 32.6708984,70.5546875 C33.4814453,70.5546875 34.0234375,71.0332031 34.0234375,71.7509766 C34.0234375,72.4833984 33.4570312,73.0009766 32.65625,73.0009766 L31.8017578,73.0009766 L31.8017578,73.7529297 Z M39.5703125,73.1767578 C39.5703125,73.9384766 40.0195312,74.3632812 41.0058594,74.6025391 L41.9091797,74.8222656 C42.4707031,74.9589844 42.7441406,75.203125 42.7441406,75.5644531 C42.7441406,76.0478516 42.2363281,76.3847656 41.5283203,76.3847656 C40.8544922,76.3847656 40.4345703,76.1015625 40.2929688,75.6572266 L39.4287109,75.6572266 C39.5214844,76.53125 40.3271484,77.0927734 41.4990234,77.0927734 C42.6953125,77.0927734 43.6083984,76.4433594 43.6083984,75.5009766 C43.6083984,74.7441406 43.1298828,74.3144531 42.1386719,74.0751953 L41.328125,73.8798828 C40.7080078,73.7285156 40.4150391,73.5039062 40.4150391,73.1425781 C40.4150391,72.6738281 40.9033203,72.3564453 41.5283203,72.3564453 C42.1630859,72.3564453 42.5732422,72.6347656 42.6855469,73.0546875 L43.515625,73.0546875 C43.4033203,72.1904297 42.6367188,71.6435547 41.5332031,71.6435547 C40.4150391,71.6435547 39.5703125,72.3027344 39.5703125,73.1767578 Z M47.1435547,72.3857422 C46.3037109,72.3857422 45.7177734,73.0009766 45.6542969,73.9335938 L48.5546875,73.9335938 C48.5351562,73.0009766 47.9785156,72.3857422 47.1435547,72.3857422 Z M48.5302734,75.6376953 L49.3701172,75.6376953 C49.1162109,76.5410156 48.3056641,77.0927734 47.1533203,77.0927734 C45.6933594,77.0927734 44.7802734,76.0380859 44.7802734,74.3730469 C44.7802734,72.7177734 45.7080078,71.6435547 47.1533203,71.6435547 C48.5742188,71.6435547 49.4384766,72.6542969 49.4384766,74.2900391 L49.4384766,74.6123047 L45.6542969,74.6123047 L45.6542969,74.6513672 C45.6982422,75.6914062 46.2792969,76.3505859 47.1728516,76.3505859 C47.8515625,76.3505859 48.3105469,76.1015625 48.5302734,75.6376953 Z M55.2294922,73.3476562 C55.0830078,72.4101562 54.3017578,71.6435547 53.0224609,71.6435547 C51.5478516,71.6435547 50.6103516,72.7080078 50.6103516,74.3486328 C50.6103516,76.0234375 51.5527344,77.0927734 53.0273438,77.0927734 C54.2919922,77.0927734 55.078125,76.3798828 55.2294922,75.4130859 L54.3798828,75.4130859 C54.2236328,76.0087891 53.7304688,76.3359375 53.0224609,76.3359375 C52.0849609,76.3359375 51.4794922,75.5644531 51.4794922,74.3486328 C51.4794922,73.1572266 52.0751953,72.4003906 53.0224609,72.4003906 C53.7792969,72.4003906 54.2431641,72.8251953 54.3798828,73.3476562 L55.2294922,73.3476562 Z M10.6542969,117.166016 C9.06738281,117.166016 8.15429688,115.818359 8.15429688,113.474609 C8.15429688,111.150391 9.07714844,109.788086 10.6542969,109.788086 C12.2216797,109.788086 13.1445312,111.155273 13.1445312,113.489258 C13.1445312,115.828125 12.2363281,117.166016 10.6542969,117.166016 Z M10.6542969,116.399414 C11.6943359,116.399414 12.2607422,115.364258 12.2607422,113.474609 C12.2607422,111.604492 11.6845703,110.55957 10.6542969,110.55957 C9.62402344,110.55957 9.03808594,111.614258 9.03808594,113.474609 C9.03808594,115.359375 9.61425781,116.399414 10.6542969,116.399414 Z M15.4003906,117.048828 C15.7519531,117.048828 16.0351562,116.760742 16.0351562,116.414062 C16.0351562,116.0625 15.7519531,115.779297 15.4003906,115.779297 C15.0537109,115.779297 14.765625,116.0625 14.765625,116.414062 C14.765625,116.760742 15.0537109,117.048828 15.4003906,117.048828 Z M20.15625,117.166016 C18.5693359,117.166016 17.65625,115.818359 17.65625,113.474609 C17.65625,111.150391 18.5791016,109.788086 20.15625,109.788086 C21.7236328,109.788086 22.6464844,111.155273 22.6464844,113.489258 C22.6464844,115.828125 21.7382812,117.166016 20.15625,117.166016 Z M20.15625,116.399414 C21.1962891,116.399414 21.7626953,115.364258 21.7626953,113.474609 C21.7626953,111.604492 21.1865234,110.55957 20.15625,110.55957 C19.1259766,110.55957 18.5400391,111.614258 18.5400391,113.474609 C18.5400391,115.359375 19.1162109,116.399414 20.15625,116.399414 Z M25.8886719,117 L26.7675781,117 L26.7675781,109.954102 L25.8935547,109.954102 L24.0185547,111.301758 L24.0185547,112.229492 L25.8105469,110.930664 L25.8886719,110.930664 L25.8886719,117 Z M31.2353516,117.161133 C30.0390625,117.161133 29.1503906,116.453125 28.9257812,115.320312 L29.8291016,115.320312 C30.0195312,115.979492 30.5517578,116.379883 31.2451172,116.379883 C32.3925781,116.379883 33.0419922,115.364258 33.0908203,113.489258 L33.0126953,113.489258 C32.6660156,114.172852 31.9775391,114.573242 31.1376953,114.573242 C29.7949219,114.573242 28.8232422,113.582031 28.8232422,112.214844 C28.8232422,110.798828 29.8486328,109.788086 31.2939453,109.788086 C32.3486328,109.788086 33.1640625,110.349609 33.6035156,111.389648 C33.8330078,111.926758 33.9453125,112.576172 33.9453125,113.352539 C33.9453125,115.774414 32.9589844,117.161133 31.2353516,117.161133 Z M31.2939453,113.811523 C32.2265625,113.811523 32.8955078,113.147461 32.8955078,112.214844 C32.8955078,111.272461 32.2070312,110.55957 31.3037109,110.55957 C30.4003906,110.55957 29.7119141,111.262695 29.7119141,112.185547 C29.7119141,113.147461 30.3613281,113.811523 31.2939453,113.811523 Z M10.6542969,157.166016 C9.06738281,157.166016 8.15429688,155.818359 8.15429688,153.474609 C8.15429688,151.150391 9.07714844,149.788086 10.6542969,149.788086 C12.2216797,149.788086 13.1445312,151.155273 13.1445312,153.489258 C13.1445312,155.828125 12.2363281,157.166016 10.6542969,157.166016 Z M10.6542969,156.399414 C11.6943359,156.399414 12.2607422,155.364258 12.2607422,153.474609 C12.2607422,151.604492 11.6845703,150.55957 10.6542969,150.55957 C9.62402344,150.55957 9.03808594,151.614258 9.03808594,153.474609 C9.03808594,155.359375 9.61425781,156.399414 10.6542969,156.399414 Z M15.4003906,157.048828 C15.7519531,157.048828 16.0351562,156.760742 16.0351562,156.414062 C16.0351562,156.0625 15.7519531,155.779297 15.4003906,155.779297 C15.0537109,155.779297 14.765625,156.0625 14.765625,156.414062 C14.765625,156.760742 15.0537109,157.048828 15.4003906,157.048828 Z M20.15625,157.166016 C18.5693359,157.166016 17.65625,155.818359 17.65625,153.474609 C17.65625,151.150391 18.5791016,149.788086 20.15625,149.788086 C21.7236328,149.788086 22.6464844,151.155273 22.6464844,153.489258 C22.6464844,155.828125 21.7382812,157.166016 20.15625,157.166016 Z M20.15625,156.399414 C21.1962891,156.399414 21.7626953,155.364258 21.7626953,153.474609 C21.7626953,151.604492 21.1865234,150.55957 20.15625,150.55957 C19.1259766,150.55957 18.5400391,151.614258 18.5400391,153.474609 C18.5400391,155.359375 19.1162109,156.399414 20.15625,156.399414 Z M25.8886719,157 L26.7675781,157 L26.7675781,149.954102 L25.8935547,149.954102 L24.0185547,151.301758 L24.0185547,152.229492 L25.8105469,150.930664 L25.8886719,150.930664 L25.8886719,157 Z M31.3085938,157.166016 C32.7685547,157.166016 33.7695312,156.189453 33.7695312,154.758789 C33.7695312,153.37207 32.8320312,152.400391 31.4941406,152.400391 C30.8447266,152.400391 30.3466797,152.600586 30.0048828,153.000977 L29.9267578,153.000977 L30.1269531,150.740234 L33.3691406,150.740234 L33.3691406,149.954102 L29.4384766,149.954102 L29.0527344,153.948242 L29.8779297,153.948242 C30.1660156,153.445312 30.6933594,153.157227 31.3330078,153.157227 C32.2558594,153.157227 32.890625,153.816406 32.890625,154.783203 C32.890625,155.75 32.2607422,156.394531 31.3183594,156.394531 C30.4882812,156.394531 29.8828125,155.886719 29.8046875,155.125 L28.9404297,155.125 C29.0185547,156.34082 29.9755859,157.166016 31.3085938,157.166016 Z M10.6542969,197.166016 C9.06738281,197.166016 8.15429688,195.818359 8.15429688,193.474609 C8.15429688,191.150391 9.07714844,189.788086 10.6542969,189.788086 C12.2216797,189.788086 13.1445312,191.155273 13.1445312,193.489258 C13.1445312,195.828125 12.2363281,197.166016 10.6542969,197.166016 Z M10.6542969,196.399414 C11.6943359,196.399414 12.2607422,195.364258 12.2607422,193.474609 C12.2607422,191.604492 11.6845703,190.55957 10.6542969,190.55957 C9.62402344,190.55957 9.03808594,191.614258 9.03808594,193.474609 C9.03808594,195.359375 9.61425781,196.399414 10.6542969,196.399414 Z M15.4003906,197.048828 C15.7519531,197.048828 16.0351562,196.760742 16.0351562,196.414062 C16.0351562,196.0625 15.7519531,195.779297 15.4003906,195.779297 C15.0537109,195.779297 14.765625,196.0625 14.765625,196.414062 C14.765625,196.760742 15.0537109,197.048828 15.4003906,197.048828 Z M20.15625,197.166016 C18.5693359,197.166016 17.65625,195.818359 17.65625,193.474609 C17.65625,191.150391 18.5791016,189.788086 20.15625,189.788086 C21.7236328,189.788086 22.6464844,191.155273 22.6464844,193.489258 C22.6464844,195.828125 21.7382812,197.166016 20.15625,197.166016 Z M20.15625,196.399414 C21.1962891,196.399414 21.7626953,195.364258 21.7626953,193.474609 C21.7626953,191.604492 21.1865234,190.55957 20.15625,190.55957 C19.1259766,190.55957 18.5400391,191.614258 18.5400391,193.474609 C18.5400391,195.359375 19.1162109,196.399414 20.15625,196.399414 Z M25.8886719,197 L26.7675781,197 L26.7675781,189.954102 L25.8935547,189.954102 L24.0185547,191.301758 L24.0185547,192.229492 L25.8105469,190.930664 L25.8886719,190.930664 L25.8886719,197 Z M30.6689453,197 L31.5478516,197 L31.5478516,189.954102 L30.6738281,189.954102 L28.7988281,191.301758 L28.7988281,192.229492 L30.5908203,190.930664 L30.6689453,190.930664 L30.6689453,197 Z M10.6542969,237.166016 C9.06738281,237.166016 8.15429688,235.818359 8.15429688,233.474609 C8.15429688,231.150391 9.07714844,229.788086 10.6542969,229.788086 C12.2216797,229.788086 13.1445312,231.155273 13.1445312,233.489258 C13.1445312,235.828125 12.2363281,237.166016 10.6542969,237.166016 Z M10.6542969,236.399414 C11.6943359,236.399414 12.2607422,235.364258 12.2607422,233.474609 C12.2607422,231.604492 11.6845703,230.55957 10.6542969,230.55957 C9.62402344,230.55957 9.03808594,231.614258 9.03808594,233.474609 C9.03808594,235.359375 9.61425781,236.399414 10.6542969,236.399414 Z M15.4003906,237.048828 C15.7519531,237.048828 16.0351562,236.760742 16.0351562,236.414062 C16.0351562,236.0625 15.7519531,235.779297 15.4003906,235.779297 C15.0537109,235.779297 14.765625,236.0625 14.765625,236.414062 C14.765625,236.760742 15.0537109,237.048828 15.4003906,237.048828 Z M20.15625,237.166016 C18.5693359,237.166016 17.65625,235.818359 17.65625,233.474609 C17.65625,231.150391 18.5791016,229.788086 20.15625,229.788086 C21.7236328,229.788086 22.6464844,231.155273 22.6464844,233.489258 C22.6464844,235.828125 21.7382812,237.166016 20.15625,237.166016 Z M20.15625,236.399414 C21.1962891,236.399414 21.7626953,235.364258 21.7626953,233.474609 C21.7626953,231.604492 21.1865234,230.55957 20.15625,230.55957 C19.1259766,230.55957 18.5400391,231.614258 18.5400391,233.474609 C18.5400391,235.359375 19.1162109,236.399414 20.15625,236.399414 Z M24.4970703,237 L25.4199219,237 L28.5546875,230.769531 L28.5546875,229.954102 L23.8916016,229.954102 L23.8916016,230.740234 L27.6611328,230.740234 L27.6611328,230.808594 L24.4970703,237 Z M10.6542969,277.166016 C9.06738281,277.166016 8.15429688,275.818359 8.15429688,273.474609 C8.15429688,271.150391 9.07714844,269.788086 10.6542969,269.788086 C12.2216797,269.788086 13.1445312,271.155273 13.1445312,273.489258 C13.1445312,275.828125 12.2363281,277.166016 10.6542969,277.166016 Z M10.6542969,276.399414 C11.6943359,276.399414 12.2607422,275.364258 12.2607422,273.474609 C12.2607422,271.604492 11.6845703,270.55957 10.6542969,270.55957 C9.62402344,270.55957 9.03808594,271.614258 9.03808594,273.474609 C9.03808594,275.359375 9.61425781,276.399414 10.6542969,276.399414 Z" id="0,023-sec-0.019-0.01" fill="#333333" opacity="0.400000006"></path>
            <path d="M48.6992188,18.9765625 L48.6992188,23.2890625 L51.4726562,23.2890625 C52.9179688,23.2890625 53.7382812,22.515625 53.7382812,21.1328125 C53.7382812,19.78125 52.8632812,18.9765625 51.4101562,18.9765625 L48.6992188,18.9765625 Z M48.6992188,24.5390625 L48.6992188,29 L47.2929688,29 L47.2929688,17.7265625 L51.5976562,17.7265625 C53.7695312,17.7265625 55.1914062,19.0546875 55.1914062,21.0859375 C55.1914062,22.65625 54.3398438,23.875 52.9257812,24.3203125 L55.5351562,29 L53.8867188,29 L51.4726562,24.5390625 L48.6992188,24.5390625 Z M60.6210938,21.6171875 C59.2773438,21.6171875 58.3398438,22.6015625 58.2382812,24.09375 L62.8789062,24.09375 C62.8476562,22.6015625 61.9570312,21.6171875 60.6210938,21.6171875 Z M62.8398438,26.8203125 L64.1835938,26.8203125 C63.7773438,28.265625 62.4804688,29.1484375 60.6367188,29.1484375 C58.3007812,29.1484375 56.8398438,27.4609375 56.8398438,24.796875 C56.8398438,22.1484375 58.3242188,20.4296875 60.6367188,20.4296875 C62.9101562,20.4296875 64.2929688,22.046875 64.2929688,24.6640625 L64.2929688,25.1796875 L58.2382812,25.1796875 L58.2382812,25.2421875 C58.3085938,26.90625 59.2382812,27.9609375 60.6679688,27.9609375 C61.7539062,27.9609375 62.4882812,27.5625 62.8398438,26.8203125 Z M65.8945312,22.8828125 C65.8945312,24.1015625 66.6132812,24.78125 68.1914062,25.1640625 L69.6367188,25.515625 C70.5351562,25.734375 70.9726562,26.125 70.9726562,26.703125 C70.9726562,27.4765625 70.1601562,28.015625 69.0273438,28.015625 C67.9492188,28.015625 67.2773438,27.5625 67.0507812,26.8515625 L65.6679688,26.8515625 C65.8164062,28.25 67.1054688,29.1484375 68.9804688,29.1484375 C70.8945312,29.1484375 72.3554688,28.109375 72.3554688,26.6015625 C72.3554688,25.390625 71.5898438,24.703125 70.0039062,24.3203125 L68.7070312,24.0078125 C67.7148438,23.765625 67.2460938,23.40625 67.2460938,22.828125 C67.2460938,22.078125 68.0273438,21.5703125 69.0273438,21.5703125 C70.0429688,21.5703125 70.6992188,22.015625 70.8789062,22.6875 L72.2070312,22.6875 C72.0273438,21.3046875 70.8007812,20.4296875 69.0351562,20.4296875 C67.2460938,20.4296875 65.8945312,21.484375 65.8945312,22.8828125 Z M78.2539062,20.4296875 C80.4023438,20.4296875 81.7929688,22.140625 81.7929688,24.7890625 C81.7929688,27.421875 80.3945312,29.1484375 78.2539062,29.1484375 C77.0507812,29.1484375 76.0820312,28.625 75.6210938,27.734375 L75.4960938,27.734375 L75.4960938,31.8125 L74.1523438,31.8125 L74.1523438,20.578125 L75.4335938,20.578125 L75.4335938,21.984375 L75.5585938,21.984375 C76.0976562,21.015625 77.1054688,20.4296875 78.2539062,20.4296875 Z M77.9335938,27.9375 C79.4804688,27.9375 80.4023438,26.7578125 80.4023438,24.7890625 C80.4023438,22.8203125 79.4804688,21.640625 77.9414062,21.640625 C76.4179688,21.640625 75.4570312,22.8515625 75.4570312,24.7890625 C75.4570312,26.71875 76.4179688,27.9375 77.9335938,27.9375 Z M87.0507812,27.9375 C88.6445312,27.9375 89.5429688,26.78125 89.5429688,24.7890625 C89.5429688,22.7890625 88.6445312,21.640625 87.0507812,21.640625 C85.4570312,21.640625 84.5585938,22.7890625 84.5585938,24.7890625 C84.5585938,26.78125 85.4570312,27.9375 87.0507812,27.9375 Z M87.0507812,29.1484375 C84.6523438,29.1484375 83.1679688,27.4921875 83.1679688,24.7890625 C83.1679688,22.078125 84.6523438,20.4296875 87.0507812,20.4296875 C89.4492188,20.4296875 90.9335938,22.078125 90.9335938,24.7890625 C90.9335938,27.4921875 89.4492188,29.1484375 87.0507812,29.1484375 Z M92.7304688,29 L94.0742188,29 L94.0742188,24.015625 C94.0742188,22.5390625 94.9414062,21.640625 96.2851562,21.640625 C97.6289062,21.640625 98.2695312,22.359375 98.2695312,23.875 L98.2695312,29 L99.6132812,29 L99.6132812,23.546875 C99.6132812,21.546875 98.5585938,20.4296875 96.6679688,20.4296875 C95.3789062,20.4296875 94.5585938,20.9765625 94.1367188,21.90625 L94.0117188,21.90625 L94.0117188,20.578125 L92.7304688,20.578125 L92.7304688,29 Z M101.558594,22.8828125 C101.558594,24.1015625 102.277344,24.78125 103.855469,25.1640625 L105.300781,25.515625 C106.199219,25.734375 106.636719,26.125 106.636719,26.703125 C106.636719,27.4765625 105.824219,28.015625 104.691406,28.015625 C103.613281,28.015625 102.941406,27.5625 102.714844,26.8515625 L101.332031,26.8515625 C101.480469,28.25 102.769531,29.1484375 104.644531,29.1484375 C106.558594,29.1484375 108.019531,28.109375 108.019531,26.6015625 C108.019531,25.390625 107.253906,24.703125 105.667969,24.3203125 L104.371094,24.0078125 C103.378906,23.765625 102.910156,23.40625 102.910156,22.828125 C102.910156,22.078125 103.691406,21.5703125 104.691406,21.5703125 C105.707031,21.5703125 106.363281,22.015625 106.542969,22.6875 L107.871094,22.6875 C107.691406,21.3046875 106.464844,20.4296875 104.699219,20.4296875 C102.910156,20.4296875 101.558594,21.484375 101.558594,22.8828125 Z M113.175781,21.6171875 C111.832031,21.6171875 110.894531,22.6015625 110.792969,24.09375 L115.433594,24.09375 C115.402344,22.6015625 114.511719,21.6171875 113.175781,21.6171875 Z M115.394531,26.8203125 L116.738281,26.8203125 C116.332031,28.265625 115.035156,29.1484375 113.191406,29.1484375 C110.855469,29.1484375 109.394531,27.4609375 109.394531,24.796875 C109.394531,22.1484375 110.878906,20.4296875 113.191406,20.4296875 C115.464844,20.4296875 116.847656,22.046875 116.847656,24.6640625 L116.847656,25.1796875 L110.792969,25.1796875 L110.792969,25.2421875 C110.863281,26.90625 111.792969,27.9609375 113.222656,27.9609375 C114.308594,27.9609375 115.042969,27.5625 115.394531,26.8203125 Z M123.410156,18.3984375 L123.410156,20.578125 L122.050781,20.578125 L122.050781,21.703125 L123.410156,21.703125 L123.410156,26.8125 C123.410156,28.421875 124.105469,29.0625 125.839844,29.0625 C126.105469,29.0625 126.363281,29.03125 126.628906,28.984375 L126.628906,27.8515625 C126.378906,27.875 126.246094,27.8828125 126.003906,27.8828125 C125.128906,27.8828125 124.753906,27.4609375 124.753906,26.46875 L124.753906,21.703125 L126.628906,21.703125 L126.628906,20.578125 L124.753906,20.578125 L124.753906,18.3984375 L123.410156,18.3984375 Z M128.378906,29 L129.722656,29 L129.722656,20.578125 L128.378906,20.578125 L128.378906,29 Z M129.050781,18.8671875 C129.566406,18.8671875 129.988281,18.4453125 129.988281,17.9296875 C129.988281,17.4140625 129.566406,16.9921875 129.050781,16.9921875 C128.535156,16.9921875 128.113281,17.4140625 128.113281,17.9296875 C128.113281,18.4453125 128.535156,18.8671875 129.050781,18.8671875 Z M131.972656,29 L133.316406,29 L133.316406,23.78125 C133.316406,22.59375 134.167969,21.640625 135.269531,21.640625 C136.332031,21.640625 137.027344,22.28125 137.027344,23.28125 L137.027344,29 L138.371094,29 L138.371094,23.5859375 C138.371094,22.515625 139.152344,21.640625 140.324219,21.640625 C141.511719,21.640625 142.097656,22.25 142.097656,23.4921875 L142.097656,29 L143.441406,29 L143.441406,23.1796875 C143.441406,21.4140625 142.480469,20.4296875 140.761719,20.4296875 C139.597656,20.4296875 138.636719,21.015625 138.183594,21.90625 L138.058594,21.90625 C137.667969,21.03125 136.871094,20.4296875 135.730469,20.4296875 C134.605469,20.4296875 133.761719,20.96875 133.378906,21.90625 L133.253906,21.90625 L133.253906,20.578125 L131.972656,20.578125 L131.972656,29 Z M148.941406,21.6171875 C147.597656,21.6171875 146.660156,22.6015625 146.558594,24.09375 L151.199219,24.09375 C151.167969,22.6015625 150.277344,21.6171875 148.941406,21.6171875 Z M151.160156,26.8203125 L152.503906,26.8203125 C152.097656,28.265625 150.800781,29.1484375 148.957031,29.1484375 C146.621094,29.1484375 145.160156,27.4609375 145.160156,24.796875 C145.160156,22.1484375 146.644531,20.4296875 148.957031,20.4296875 C151.230469,20.4296875 152.613281,22.046875 152.613281,24.6640625 L152.613281,25.1796875 L146.558594,25.1796875 L146.558594,25.2421875 C146.628906,26.90625 147.558594,27.9609375 148.988281,27.9609375 C150.074219,27.9609375 150.808594,27.5625 151.160156,26.8203125 Z" id="Response-time" fill="#333333"></path>
            <rect id="Rectangle-21" fill="#333333" opacity="0.100000001" x="0" y="45" width="200" height="1"></rect>
        </g>
    </g>
</svg>
